<?xml version="1.0" encoding="utf-8"?>
<!-- Generator: Adobe Illustrator 26.0.3, SVG Export Plug-In . SVG Version: 6.00 Build 0)  -->
<svg version="1.1" id="Capa_1" xmlns="http://www.w3.org/2000/svg" xmlns:xlink="http://www.w3.org/1999/xlink" x="0px" y="0px"
	 viewBox="0 0 953.8 133.3" style="enable-background:new 0 0 953.8 133.3;" xml:space="preserve">
<style type="text/css">
	.st0{fill:#0B75A4;}
	.st1{fill:#FFFFFF;}
</style>
<g>
	<g>
		<g id="XMLID_1_">
			<g id="XMLID_6_">
				<path id="XMLID_7_" class="st0" d="M366,237c-4.7-5.8-4.9-3-4.9-3c0.6,0.6,0.6,3.6,0.6,3.6c-0.4,2.9,1.2,3.6,1.2,3.6
					c0.3,4.9-2.2,6.4-2.9,6.8c-0.7,0.4-1.3-0.2-1.3-0.2l-21.4-17.2l0.5-0.5c0.7-0.6,0.8-1.6,0.2-2.2c-0.5-0.6-1.5-0.5-2.2,0.1
					l-0.7,0.7l-2-1.6c0.5-1.5,0.1-3.3-1.2-4.4c-1.7-1.5-4.2-1.4-5.6,0.2c-1.4,1.6-1.1,4.1,0.6,5.5c1.3,1.1,3.1,1.4,4.4,0.7
					c0.5,0.4,1.1,1,1.8,1.6l-0.8,0.8c-0.7,0.6-0.8,1.6-0.2,2.2c0.5,0.6,1.5,0.5,2.2-0.2l0.9-0.9c7.1,6.5,19.3,17.6,20.3,18.6
					c1.4,1.3,0.1,2.4,0.1,2.4c-4,3.6-6.4,2.8-6.4,2.8c-1-1.6-1.1-0.9-1.1-0.9s0.1,0.9-3.9,0.6c-3.4-0.2-2.8,0.3-2.8,0.3
					c2.3,4.5,8.7,4.7,9.5,4.6c0.8-0.1,0.6-0.7,0.6-0.7c0-0.8,0.2-1.3,0.2-1.3c4.4,0,7.3-2.5,7.3-2.5l6-0.2l-0.8-5.6
					c1.8-2.3,1.7-7.8,1.7-7.8s0.1-0.7,0.8-0.5c0.7,0.2,1,0,1,0C367.9,239.9,366,237,366,237z M329.9,228.1c-4.6-1.3-1.9-4-1.9-4
					c2.8-1.5,3.7,2.2,3.7,2.2C329.9,226.2,329.9,228.1,329.9,228.1z"/>
			</g>
			<g id="XMLID_2_">
				<path id="XMLID_3_" class="st0" d="M312.5,242.5c0,0,0.2,0.2,1,0c0.7-0.2,0.8,0.5,0.8,0.5s-0.1,5.5,1.7,7.8l-0.8,5.6l6,0.2
					c0,0,2.9,2.6,7.3,2.5c0,0,0.2,0.5,0.2,1.3c0,0-0.1,0.6,0.6,0.7c0.8,0.1,7.2-0.1,9.5-4.6c0,0,0.6-0.6-2.8-0.3
					c-3.9,0.3-3.9-0.6-3.9-0.6s0-0.7-1.1,0.9c0,0-2.5,0.8-6.4-2.8c0,0-1.3-1,0.1-2.4c1-0.9,13.2-12.1,20.3-18.6l0.9,0.9
					c0.7,0.6,1.6,0.7,2.2,0.2c0.5-0.6,0.4-1.5-0.2-2.2l-0.8-0.8c0.7-0.6,1.3-1.2,1.8-1.6c1.4,0.6,3.1,0.4,4.4-0.7
					c1.7-1.5,2-4,0.6-5.5c-1.4-1.6-3.9-1.7-5.6-0.2c-1.3,1.2-1.8,2.9-1.2,4.4l-2.1,1.6l-0.7-0.7c-0.7-0.6-1.6-0.7-2.2-0.2
					c-0.5,0.6-0.4,1.5,0.2,2.2l0.5,0.5l-21.4,17.1c0,0-0.6,0.6-1.3,0.2c-0.7-0.4-3.2-1.9-2.9-6.8c0,0,1.6-0.8,1.2-3.6
					c0,0,0-2.9,0.6-3.6c0,0-0.2-2.8-4.9,3C314.3,236.8,312.4,239.7,312.5,242.5z M348.6,226.1c0,0,0.9-3.7,3.7-2.2
					c0,0,2.7,2.7-1.9,4C350.4,227.8,350.5,226,348.6,226.1z"/>
			</g>
		</g>
		<g>
			<g>
				<path class="st0" d="M316.8,273.3l0.6,0.4l-1,5.2l-0.1,0l-1-0.7l0.2-0.9l-1.7-1.2l-0.8,0.5l-0.9-0.7l0-0.1L316.8,273.3z
					 M316.2,274.8l-1.5,0.9l1.1,0.8L316.2,274.8z"/>
				<path class="st0" d="M322.4,279.9l0.1,2.1l-0.1,0.1l-1-0.5l-0.1-2.1l-0.6-0.3l-0.8,1.6l-1-0.5l2.1-4.4l1.9,0.9
					c0.5,0.3,0.9,0.6,1.1,1c0.2,0.4,0.1,0.8-0.1,1.2c-0.1,0.3-0.3,0.5-0.6,0.6C323.1,279.9,322.8,280,322.4,279.9z M322.5,277.8
					l-0.8-0.4l-0.6,1.1l0.8,0.4c0.2,0.1,0.4,0.1,0.5,0.1c0.2,0,0.3-0.2,0.4-0.3c0.1-0.2,0.1-0.3,0-0.5
					C322.8,278,322.6,277.9,322.5,277.8z"/>
				<path class="st0" d="M330.6,281.9L330.6,281.9c0.1,0.2,0,0.3,0,0.4c-0.2,0.7-0.6,1.2-1.2,1.5c-0.6,0.3-1.3,0.4-1.9,0.2
					c-0.7-0.2-1.2-0.6-1.5-1.2c-0.3-0.6-0.4-1.2-0.2-1.9c0.2-0.7,0.6-1.2,1.2-1.5c0.6-0.3,1.3-0.4,1.9-0.2c0.4,0.1,0.7,0.3,1,0.6
					c0.3,0.3,0.5,0.6,0.6,0.9l0,0.1l-0.9,0.4l-0.1,0c-0.2-0.5-0.5-0.8-1-0.9c-0.4-0.1-0.7-0.1-1.1,0.1c-0.3,0.2-0.6,0.5-0.7,0.9
					c-0.1,0.4-0.1,0.8,0.1,1.1c0.2,0.3,0.5,0.6,0.9,0.7c0.4,0.1,0.7,0.1,1-0.1c0.2-0.1,0.4-0.3,0.5-0.5l-1.2-0.4l0.2-0.8
					L330.6,281.9z"/>
				<path class="st0" d="M337,280.8l-0.1,0.9l-2.4-0.3l-0.1,1l1.8,0.2l-0.1,0.9l-1.8-0.2l-0.1,1l2.4,0.3l-0.1,0.9l-3.5-0.4l0.6-4.8
					L337,280.8z"/>
				<path class="st0" d="M342.6,283.7l-0.1-2.9l1.2,0l0.2,4.9l-0.7,0l-2.6-2.8l0.1,2.9l-1.2,0l-0.2-4.8l0.7,0L342.6,283.7z"/>
				<path class="st0" d="M350.1,280.6l-1.5,0.3l0.8,3.8l-1.2,0.2l-0.8-3.8l-1.5,0.3l-0.2-0.9l4.1-0.8L350.1,280.6z"/>
				<path class="st0" d="M353.4,283.7l-1.5-4.6l1.1-0.4l1.5,4.6L353.4,283.7z"/>
				<path class="st0" d="M359.6,279l-1.3-2.6l1-0.5l2.1,4.4l-0.7,0.3l-3.5-1.5l1.3,2.6l-1,0.5l-2.1-4.4l0.6-0.3L359.6,279z"/>
				<path class="st0" d="M362.9,273.6l0.6-0.4l4.6,2.6l0,0.1l-1,0.7l-0.8-0.5l-1.7,1.2l0.2,0.9l-0.9,0.7l-0.1,0L362.9,273.6z
					 M364.1,274.7l0.4,1.7l1.1-0.8L364.1,274.7z"/>
			</g>
		</g>
		<g>
			<path class="st0" d="M300.2,225l0.9-1.9c0.3-0.5,0.6-0.9,1-1.1c0.4-0.2,0.8-0.2,1.3,0c0.5,0.2,0.7,0.5,0.9,0.9
				c0.1,0.4,0.1,0.9-0.2,1.4l-0.4,0.9l1.5,0.7l-0.5,1.1L300.2,225z M302.7,224.9l0.4-0.9c0.1-0.2,0.1-0.4,0-0.5
				c-0.1-0.2-0.2-0.3-0.4-0.4c-0.2-0.1-0.4-0.1-0.5,0c-0.2,0.1-0.3,0.2-0.4,0.4l-0.4,0.9L302.7,224.9z"/>
			<path class="st0" d="M307.3,218.1l2.1,0.2l0,0.1l-0.6,1l-2.1-0.2l-0.4,0.6l1.5,1l-0.6,1l-4-2.7l1.2-1.7c0.3-0.5,0.7-0.8,1.1-0.9
				c0.4-0.1,0.8,0,1.2,0.2c0.3,0.2,0.4,0.4,0.5,0.7C307.4,217.5,307.4,217.8,307.3,218.1z M305.2,217.8l-0.5,0.8l1.1,0.7l0.5-0.8
				c0.1-0.2,0.2-0.3,0.1-0.5c0-0.2-0.1-0.3-0.3-0.4c-0.2-0.1-0.3-0.1-0.5-0.1C305.5,217.5,305.3,217.6,305.2,217.8z"/>
			<path class="st0" d="M309.7,210.8l0.7,0.6l-1.6,1.7l0.7,0.7l1.2-1.4l0.7,0.6l-1.2,1.4l0.8,0.7l1.6-1.8l0.7,0.6l-2.4,2.6l-3.6-3.3
				L309.7,210.8z"/>
			<path class="st0" d="M314.5,206.7l0.6,0.7l-1.7,1.4l0.7,0.8l1.3-1.1l0.6,0.7l-1.3,1.1l1.2,1.5l-0.9,0.7l-3.1-3.8L314.5,206.7z"/>
			<path class="st0" d="M319.8,203.3l0.5,0.8l-2,1.2l0.5,0.9l1.6-0.9l0.5,0.8l-1.6,0.9l0.5,0.9l2.1-1.2l0.5,0.8l-3.1,1.8l-2.5-4.2
				L319.8,203.3z"/>
			<path class="st0" d="M326.3,205.8c-0.7,0.3-1.3,0.3-2,0c-0.6-0.3-1.1-0.7-1.4-1.4c-0.3-0.7-0.3-1.3,0-1.9
				c0.3-0.6,0.8-1.1,1.5-1.4c0.4-0.2,0.8-0.2,1.2-0.2c0.4,0,0.8,0.1,1.1,0.3l0,0.1l-0.4,0.8l-0.1,0c-0.4-0.2-0.9-0.3-1.4-0.1
				c-0.4,0.2-0.6,0.4-0.8,0.8c-0.2,0.4-0.2,0.7,0,1.1c0.2,0.4,0.4,0.7,0.8,0.8c0.4,0.2,0.7,0.2,1.1,0c0.5-0.2,0.8-0.5,0.9-1l0.1,0
				l0.9,0.3l0,0.1c-0.1,0.4-0.3,0.7-0.6,1C327,205.4,326.7,205.6,326.3,205.8z"/>
			<path class="st0" d="M332.9,199.8l-1.5,0.3l0.9,3.8l-1.1,0.3l-0.9-3.8l-1.5,0.3l-0.2-0.9l4.1-0.9L332.9,199.8z"/>
			<path class="st0" d="M335.5,201.2l-0.2-2.7l1.2-0.1l0.2,2.8c0,0.3,0.1,0.6,0.4,0.8c0.2,0.2,0.5,0.3,0.8,0.3
				c0.3,0,0.6-0.1,0.8-0.4c0.2-0.2,0.3-0.5,0.3-0.8l-0.2-2.8l1.1-0.1l0.2,2.7c0,0.7-0.1,1.2-0.5,1.7c-0.4,0.4-0.9,0.7-1.6,0.7
				c-0.7,0-1.2-0.1-1.7-0.5C335.8,202.4,335.6,201.8,335.5,201.2z"/>
			<path class="st0" d="M345.7,201.5l0.8,2l-0.1,0.1l-1.1-0.1l-0.8-1.9l-0.7-0.1l-0.2,1.8l-1.2-0.1l0.5-4.8l2.1,0.2
				c0.6,0.1,1,0.2,1.3,0.6c0.3,0.3,0.4,0.7,0.4,1.2c0,0.3-0.1,0.6-0.3,0.8S346,201.4,345.7,201.5z M345,199.5l-0.9-0.1l-0.1,1.3
				l0.9,0.1c0.2,0,0.4,0,0.5-0.1c0.1-0.1,0.2-0.2,0.2-0.4c0-0.2,0-0.4-0.1-0.5C345.3,199.6,345.2,199.5,345,199.5z"/>
			<path class="st0" d="M351.5,199.8l0.7,0.2l0.9,5.2l-0.1,0.1l-1.1-0.3l-0.1-0.9l-2-0.6l-0.6,0.7l-1.1-0.3l0-0.1L351.5,199.8z
				 M351.4,201.4l-1.1,1.4l1.3,0.4L351.4,201.4z"/>
			<path class="st0" d="M361.1,207l1.4-2.5l1,0.6l-2.4,4.2l-0.6-0.4l-0.7-3.7l-1.4,2.5l-1-0.6l2.4-4.2l0.6,0.4L361.1,207z"/>
			<path class="st0" d="M367.5,208l0.5,0.5l-1.3,5.1l-0.1,0l-0.9-0.8l0.3-0.9l-1.6-1.3l-0.8,0.4l-0.9-0.7l0-0.1L367.5,208z
				 M366.7,209.4l-1.6,0.8l1.1,0.9L366.7,209.4z"/>
			<path class="st0" d="M373.4,213.8l0.8,0.9l0,0.1l-5,1.5l-0.5-0.5l2.1-4.8l0.1,0l0.8,0.9l-1.5,3L373.4,213.8z"/>
			<path class="st0" d="M376.3,217.8l0.4,0.6l-2.8,4.5l-0.1,0l-0.6-1l0.5-0.8l-1.1-1.7l-0.9,0.2l-0.6-1l0-0.1L376.3,217.8z
				 M375.2,219l-1.8,0.3l0.7,1.2L375.2,219z"/>
			<path class="st0" d="M376,225.3l0.8,1.9l-0.9,0.4l-1.3-2.9l4.4-2l0.5,1.1L376,225.3z"/>
		</g>
	</g>
	<g>
		<g>
			<path class="st0" d="M394.1,266.7v-58.3h14v58.3H394.1z"/>
			<path class="st0" d="M420.6,240.8v-32.3h14v33.1c0,4.1,1.2,7.4,3.6,9.9c2.4,2.5,5.6,3.8,9.5,3.8c3.9,0,7-1.3,9.5-3.8
				c2.4-2.5,3.6-5.8,3.6-9.9v-33.1h13.7v32.3c0,8.1-2.5,14.7-7.4,19.6c-4.9,4.9-11.4,7.4-19.4,7.4c-8.2,0-14.7-2.5-19.7-7.4
				C423.1,255.4,420.6,248.9,420.6,240.8z"/>
			<path class="st0" d="M507.2,267.8c-5.2,0-10-0.9-14.3-2.8c-4.4-1.9-7.9-4.4-10.5-7.7v-1.1l6.9-8h1c1.9,2.2,4.4,4,7.4,5.5
				c3,1.5,5.9,2.2,8.7,2.2c2.9,0,5.1-0.5,6.8-1.6c1.7-1,2.5-2.4,2.5-4.2c0-1.6-0.5-2.8-1.6-3.7c-0.5-0.4-1.2-0.8-2.2-1.2
				c-1.2-0.5-2-0.8-2.5-0.9c-0.2-0.1-0.5-0.1-0.7-0.2c-0.3-0.1-0.7-0.2-1.2-0.4c-0.5-0.1-0.9-0.3-1.3-0.4c-0.6-0.1-1.2-0.3-2-0.5
				c-0.8-0.2-1.2-0.4-1.4-0.4c-4.6-1.4-8.5-3.3-11.8-5.7c-4-2.9-6-7-6-12.1c0-5.1,2-9.3,6.1-12.4c4.1-3.2,9.3-4.8,15.8-4.8
				c4.6,0,8.9,0.8,12.7,2.4c3.8,1.6,6.9,3.7,9.1,6.4v1l-6.9,7.9h-1c-4.1-4.2-8.7-6.3-13.8-6.4c-2.4,0-4.3,0.5-5.7,1.4
				c-1.5,0.9-2.2,2.2-2.2,3.8c0,1.8,1,3.3,2.9,4.3c1.2,0.6,2.1,1.1,2.8,1.4c0.5,0.2,1.6,0.6,3.5,1.3c6.5,2.1,11,3.8,13.4,5.2
				c5.3,3.2,8,7.9,8.1,14.1c0,5.5-2.2,9.8-6.5,13C519.2,266.2,513.7,267.8,507.2,267.8z"/>
			<path class="st0" d="M598,208.4l8.1,58.3h-12.9l-3.6-31.5l-13.9,31.5h-7.8l-13.6-31.5l-3.7,31.5h-13.8l8.1-58.3h8.2l18.6,40.1
				l18.2-40.1H598z"/>
		</g>
		<g>
			<g>
				<path class="st0" d="M394.9,282.2v-5.3h0.6v5.3H394.9z"/>
				<path class="st0" d="M401,281.1v-4.2h0.6v5.4h-0.3l-3.4-4.2v4.1h-0.6v-5.3h0.3L401,281.1z"/>
				<path class="st0" d="M405,282.3c-0.4,0-0.8-0.1-1.2-0.3c-0.4-0.2-0.7-0.5-0.9-0.8v0l0.4-0.3h0c0.2,0.3,0.5,0.5,0.7,0.7
					c0.3,0.2,0.6,0.2,0.9,0.2c0.4,0,0.7-0.1,0.9-0.3c0.2-0.2,0.3-0.4,0.3-0.7c0-0.2,0-0.3-0.1-0.4c-0.1-0.1-0.1-0.2-0.3-0.3
					c-0.1-0.1-0.3-0.2-0.4-0.2c-0.1,0-0.3-0.1-0.5-0.2c-0.2-0.1-0.4-0.1-0.5-0.2c-0.2-0.1-0.3-0.1-0.4-0.2c-0.1-0.1-0.2-0.1-0.4-0.2
					c-0.3-0.2-0.5-0.5-0.5-1c0-0.4,0.2-0.8,0.5-1c0.3-0.3,0.7-0.4,1.3-0.4c0.7,0,1.3,0.3,1.7,0.8v0l-0.4,0.3h0
					c-0.4-0.4-0.8-0.7-1.3-0.7c-0.3,0-0.6,0.1-0.8,0.2c-0.2,0.2-0.3,0.4-0.3,0.6c0,0.2,0.1,0.4,0.3,0.5c0.2,0.1,0.4,0.3,0.8,0.4
					c0.1,0,0.2,0.1,0.3,0.1c0.2,0.1,0.3,0.1,0.4,0.1c0.1,0,0.2,0.1,0.3,0.1c0.1,0.1,0.2,0.1,0.3,0.2c0.2,0.1,0.4,0.3,0.5,0.5
					c0.1,0.2,0.2,0.4,0.2,0.7c0,0.4-0.2,0.8-0.5,1.1C406,282.1,405.5,282.3,405,282.3z"/>
				<path class="st0" d="M411.6,277.4h-1.8v4.8h-0.6v-4.8h-1.8v-0.5h4.1V277.4z"/>
				<path class="st0" d="M412.8,282.2v-5.3h0.6v5.3H412.8z"/>
				<path class="st0" d="M418.7,277.4h-1.8v4.8h-0.6v-4.8h-1.8v-0.5h4.1V277.4z"/>
				<path class="st0" d="M419.8,280.1v-3.2h0.6v3.2c0,0.5,0.1,0.9,0.4,1.2c0.3,0.3,0.7,0.5,1.2,0.5c0.5,0,0.9-0.2,1.2-0.5
					c0.3-0.3,0.4-0.7,0.4-1.2v-3.2h0.6v3.2c0,0.7-0.2,1.2-0.6,1.6c-0.4,0.4-0.9,0.6-1.6,0.6c-0.7,0-1.2-0.2-1.6-0.6
					C420,281.3,419.8,280.7,419.8,280.1z"/>
				<path class="st0" d="M429.5,277.4h-1.8v4.8h-0.6v-4.8h-1.8v-0.5h4.1V277.4z"/>
				<path class="st0" d="M434.8,281.5c-0.5,0.5-1.2,0.8-2,0.8c-0.8,0-1.5-0.3-2-0.8c-0.5-0.5-0.8-1.2-0.8-2s0.3-1.4,0.8-2
					c0.5-0.5,1.2-0.8,2-0.8c0.8,0,1.5,0.3,2,0.8c0.5,0.5,0.8,1.2,0.8,2S435.3,280.9,434.8,281.5z M431.2,281.1
					c0.4,0.4,0.9,0.6,1.6,0.6c0.6,0,1.2-0.2,1.6-0.6c0.4-0.4,0.6-0.9,0.6-1.6c0-0.6-0.2-1.2-0.6-1.6c-0.4-0.4-0.9-0.6-1.6-0.6
					c-0.6,0-1.2,0.2-1.6,0.6c-0.4,0.4-0.6,0.9-0.6,1.6C430.6,280.1,430.8,280.7,431.2,281.1z"/>
				<path class="st0" d="M439.3,280.1v-3.2h0.6v3.2c0,0.5,0.1,0.9,0.4,1.2c0.3,0.3,0.7,0.5,1.2,0.5c0.5,0,0.9-0.2,1.2-0.5
					c0.3-0.3,0.4-0.7,0.4-1.2v-3.2h0.6v3.2c0,0.7-0.2,1.2-0.6,1.6c-0.4,0.4-0.9,0.6-1.6,0.6c-0.7,0-1.2-0.2-1.6-0.6
					C439.5,281.3,439.3,280.7,439.3,280.1z"/>
				<path class="st0" d="M449.2,281.1v-4.2h0.6v5.4h-0.3l-3.4-4.2v4.1h-0.6v-5.3h0.3L449.2,281.1z"/>
				<path class="st0" d="M451.6,282.2v-5.3h0.6v5.3H451.6z"/>
				<path class="st0" d="M457.6,276.9h0.6l0,0l-2.3,5.2h-0.3l-2.3-5.2l0,0h0.6l1.8,4.2L457.6,276.9z"/>
				<path class="st0" d="M463,276.9v0.5h-2.9v1.8h2.3v0.5h-2.3v1.9h2.9v0.5h-3.5v-5.3H463z"/>
				<path class="st0" d="M468.3,278.4c0,0.4-0.1,0.7-0.3,0.9c-0.2,0.2-0.5,0.4-0.9,0.5l1.2,2.3l0,0h-0.6l-1.2-2.2h-0.1H465v2.2h-0.6
					v-5.3h2c0.6,0,1.1,0.1,1.4,0.4C468.2,277.5,468.3,277.9,468.3,278.4z M466.6,277.4H465v2h1.6c0.3,0,0.6-0.1,0.8-0.3
					c0.2-0.2,0.3-0.4,0.3-0.7c0-0.3-0.1-0.5-0.3-0.7C467.2,277.5,467,277.4,466.6,277.4z"/>
				<path class="st0" d="M471.4,282.3c-0.4,0-0.8-0.1-1.2-0.3c-0.4-0.2-0.7-0.5-0.9-0.8v0l0.4-0.3h0c0.2,0.3,0.5,0.5,0.7,0.7
					c0.3,0.2,0.6,0.2,0.9,0.2c0.4,0,0.7-0.1,0.9-0.3c0.2-0.2,0.3-0.4,0.3-0.7c0-0.2,0-0.3-0.1-0.4c-0.1-0.1-0.1-0.2-0.3-0.3
					c-0.1-0.1-0.3-0.2-0.4-0.2c-0.1,0-0.3-0.1-0.5-0.2c-0.2-0.1-0.4-0.1-0.5-0.2c-0.2-0.1-0.3-0.1-0.4-0.2c-0.1-0.1-0.2-0.1-0.4-0.2
					c-0.3-0.2-0.5-0.5-0.5-1c0-0.4,0.2-0.8,0.5-1c0.3-0.3,0.7-0.4,1.3-0.4c0.7,0,1.3,0.3,1.7,0.8v0l-0.4,0.3h0
					c-0.4-0.4-0.8-0.7-1.3-0.7c-0.3,0-0.6,0.1-0.8,0.2c-0.2,0.2-0.3,0.4-0.3,0.6c0,0.2,0.1,0.4,0.3,0.5c0.2,0.1,0.4,0.3,0.8,0.4
					c0.1,0,0.2,0.1,0.3,0.1c0.2,0.1,0.3,0.1,0.4,0.1c0.1,0,0.2,0.1,0.3,0.1c0.1,0.1,0.2,0.1,0.3,0.2c0.2,0.1,0.4,0.3,0.5,0.5
					c0.1,0.2,0.2,0.4,0.2,0.7c0,0.4-0.2,0.8-0.5,1.1C472.3,282.1,471.9,282.3,471.4,282.3z"/>
				<path class="st0" d="M474.6,282.2v-5.3h0.6v5.3H474.6z"/>
				<path class="st0" d="M480.5,277.4h-1.8v4.8h-0.6v-4.8h-1.8v-0.5h4.1V277.4z"/>
				<path class="st0" d="M483,276.9h0.3l2.4,5.2l0,0h-0.6l-0.5-1.2h-2.9l-0.6,1.2h-0.6l0,0L483,276.9z M483.1,277.8l-1.2,2.6h2.4
					L483.1,277.8z"/>
				<path class="st0" d="M490.7,278.4c0,0.4-0.1,0.7-0.3,0.9c-0.2,0.2-0.5,0.4-0.9,0.5l1.2,2.3l0,0h-0.6l-1.2-2.2h-0.1h-1.4v2.2
					h-0.6v-5.3h2c0.6,0,1.1,0.1,1.4,0.4C490.6,277.5,490.7,277.9,490.7,278.4z M489,277.4h-1.6v2h1.6c0.3,0,0.6-0.1,0.8-0.3
					c0.2-0.2,0.3-0.4,0.3-0.7c0-0.3-0.1-0.5-0.3-0.7C489.6,277.5,489.4,277.4,489,277.4z"/>
				<path class="st0" d="M492.2,282.2v-5.3h0.6v5.3H492.2z"/>
				<path class="st0" d="M499.1,281.5c-0.5,0.5-1.2,0.8-2,0.8c-0.8,0-1.5-0.3-2-0.8c-0.5-0.5-0.8-1.2-0.8-2s0.3-1.4,0.8-2
					c0.5-0.5,1.2-0.8,2-0.8c0.8,0,1.5,0.3,2,0.8c0.5,0.5,0.8,1.2,0.8,2S499.6,280.9,499.1,281.5z M495.5,281.1
					c0.4,0.4,0.9,0.6,1.6,0.6c0.6,0,1.2-0.2,1.6-0.6c0.4-0.4,0.6-0.9,0.6-1.6c0-0.6-0.2-1.2-0.6-1.6c-0.4-0.4-0.9-0.6-1.6-0.6
					c-0.6,0-1.2,0.2-1.6,0.6c-0.4,0.4-0.6,0.9-0.6,1.6C494.9,280.1,495.1,280.7,495.5,281.1z"/>
				<path class="st0" d="M503.7,276.9h2c0.8,0,1.5,0.2,2,0.7c0.5,0.5,0.8,1.1,0.8,1.9c0,0.8-0.3,1.4-0.8,1.9c-0.5,0.5-1.2,0.7-2,0.7
					h-2V276.9z M504.3,281.6h1.4c0.7,0,1.2-0.2,1.6-0.6c0.4-0.4,0.6-0.9,0.6-1.5c0-0.6-0.2-1.2-0.6-1.5c-0.4-0.4-0.9-0.6-1.6-0.6
					h-1.4V281.6z"/>
				<path class="st0" d="M513.4,276.9v0.5h-2.9v1.8h2.3v0.5h-2.3v1.9h2.9v0.5h-3.5v-5.3H513.4z"/>
				<path class="st0" d="M518.8,282.3c-0.4,0-0.8-0.1-1.2-0.3c-0.4-0.2-0.7-0.5-0.9-0.8v0l0.4-0.3h0c0.2,0.3,0.5,0.5,0.7,0.7
					c0.3,0.2,0.6,0.2,0.9,0.2c0.4,0,0.7-0.1,0.9-0.3c0.2-0.2,0.3-0.4,0.3-0.7c0-0.2,0-0.3-0.1-0.4c-0.1-0.1-0.1-0.2-0.3-0.3
					c-0.1-0.1-0.3-0.2-0.4-0.2c-0.1,0-0.3-0.1-0.5-0.2c-0.2-0.1-0.4-0.1-0.5-0.2c-0.2-0.1-0.3-0.1-0.4-0.2c-0.1-0.1-0.2-0.1-0.4-0.2
					c-0.3-0.2-0.5-0.5-0.5-1c0-0.4,0.2-0.8,0.5-1c0.3-0.3,0.7-0.4,1.3-0.4c0.8,0,1.3,0.3,1.7,0.8v0l-0.4,0.3h0
					c-0.4-0.4-0.8-0.7-1.3-0.7c-0.3,0-0.6,0.1-0.8,0.2c-0.2,0.2-0.3,0.4-0.3,0.6c0,0.2,0.1,0.4,0.3,0.5c0.2,0.1,0.4,0.3,0.8,0.4
					c0.1,0,0.2,0.1,0.3,0.1c0.2,0.1,0.3,0.1,0.4,0.1c0.1,0,0.2,0.1,0.3,0.1c0.1,0.1,0.2,0.1,0.3,0.2c0.2,0.1,0.4,0.3,0.5,0.5
					c0.1,0.2,0.2,0.4,0.2,0.7c0,0.4-0.2,0.8-0.5,1.1C519.8,282.1,519.3,282.3,518.8,282.3z"/>
				<path class="st0" d="M525.5,276.9v0.5h-2.9v1.8h2.3v0.5h-2.3v1.9h2.9v0.5H522v-5.3H525.5z"/>
				<path class="st0" d="M531.7,279.3L531.7,279.3c0.1,0.1,0.1,0.2,0.1,0.3c0,0.7-0.2,1.4-0.7,1.9c-0.5,0.5-1.2,0.8-1.9,0.8
					c-0.8,0-1.4-0.3-1.9-0.8c-0.5-0.5-0.8-1.2-0.8-2c0-0.8,0.3-1.4,0.8-2c0.5-0.5,1.2-0.8,1.9-0.8c0.4,0,0.8,0.1,1.2,0.3
					c0.4,0.2,0.7,0.4,0.9,0.8v0.1l-0.4,0.3h-0.1c-0.2-0.3-0.4-0.5-0.7-0.6c-0.3-0.2-0.6-0.2-1-0.2c-0.6,0-1.1,0.2-1.5,0.6
					c-0.4,0.4-0.6,0.9-0.6,1.6c0,0.7,0.2,1.2,0.6,1.6c0.4,0.4,0.9,0.6,1.5,0.6c0.6,0,1.1-0.2,1.5-0.6c0.3-0.4,0.5-0.8,0.5-1.3h-2
					v-0.5H531.7z"/>
				<path class="st0" d="M533.1,280.1v-3.2h0.6v3.2c0,0.5,0.1,0.9,0.4,1.2c0.3,0.3,0.7,0.5,1.2,0.5c0.5,0,0.9-0.2,1.2-0.5
					c0.3-0.3,0.4-0.7,0.4-1.2v-3.2h0.6v3.2c0,0.7-0.2,1.2-0.6,1.6c-0.4,0.4-0.9,0.6-1.6,0.6c-0.7,0-1.2-0.2-1.6-0.6
					C533.3,281.3,533.1,280.7,533.1,280.1z"/>
				<path class="st0" d="M543.1,278.4c0,0.4-0.1,0.7-0.3,0.9c-0.2,0.2-0.5,0.4-0.9,0.5l1.2,2.3l0,0h-0.6l-1.2-2.2h-0.1h-1.4v2.2
					h-0.6v-5.3h2c0.6,0,1.1,0.1,1.4,0.4C543,277.5,543.1,277.9,543.1,278.4z M541.4,277.4h-1.6v2h1.6c0.3,0,0.6-0.1,0.8-0.3
					c0.2-0.2,0.3-0.4,0.3-0.7c0-0.3-0.1-0.5-0.3-0.7C542,277.5,541.8,277.4,541.4,277.4z"/>
				<path class="st0" d="M544.6,282.2v-5.3h0.6v5.3H544.6z"/>
				<path class="st0" d="M547.1,276.9h2c0.8,0,1.5,0.2,2,0.7c0.5,0.5,0.8,1.1,0.8,1.9c0,0.8-0.3,1.4-0.8,1.9c-0.5,0.5-1.2,0.7-2,0.7
					h-2V276.9z M547.6,281.6h1.4c0.7,0,1.2-0.2,1.6-0.6c0.4-0.4,0.6-0.9,0.6-1.5c0-0.6-0.2-1.2-0.6-1.5c-0.4-0.4-0.9-0.6-1.6-0.6
					h-1.4V281.6z"/>
				<path class="st0" d="M554.9,276.9h0.3l2.4,5.2l0,0h-0.6l-0.5-1.2h-2.9l-0.6,1.2h-0.6l0,0L554.9,276.9z M555.1,277.8l-1.2,2.6
					h2.4L555.1,277.8z"/>
				<path class="st0" d="M558.9,276.9h2c0.8,0,1.5,0.2,2,0.7c0.5,0.5,0.8,1.1,0.8,1.9c0,0.8-0.3,1.4-0.8,1.9c-0.5,0.5-1.2,0.7-2,0.7
					h-2V276.9z M559.5,281.6h1.4c0.7,0,1.2-0.2,1.6-0.6c0.4-0.4,0.6-0.9,0.6-1.5c0-0.6-0.2-1.2-0.6-1.5c-0.4-0.4-0.9-0.6-1.6-0.6
					h-1.4V281.6z"/>
				<path class="st0" d="M572.3,276.9l0.6,5.3h-0.5l-0.4-3.8l-1.8,3.8h-0.3l-1.7-3.8l-0.4,3.8h-0.5l0.6-5.3h0.3l2,4.4l2-4.4H572.3z"
					/>
				<path class="st0" d="M576.2,276.9h0.3l2.4,5.2l0,0h-0.6l-0.5-1.2h-2.9l-0.6,1.2h-0.6l0,0L576.2,276.9z M576.4,277.8l-1.2,2.6
					h2.4L576.4,277.8z"/>
				<path class="st0" d="M584,278.4c0,0.4-0.1,0.7-0.3,0.9c-0.2,0.2-0.5,0.4-0.9,0.5l1.2,2.3l0,0h-0.6l-1.2-2.2h-0.1h-1.4v2.2h-0.6
					v-5.3h2c0.6,0,1.1,0.1,1.4,0.4C583.8,277.5,584,277.9,584,278.4z M582.3,277.4h-1.6v2h1.6c0.3,0,0.6-0.1,0.8-0.3
					c0.2-0.2,0.3-0.4,0.3-0.7c0-0.3-0.1-0.5-0.3-0.7C582.9,277.5,582.6,277.4,582.3,277.4z"/>
				<path class="st0" d="M584.8,276.1l1.5-1h0l0.3,0.4v0l-1.6,0.8h0L584.8,276.1L584.8,276.1z M585.5,282.2v-5.3h0.6v5.3H585.5z"/>
				<path class="st0" d="M591.4,277.4h-1.8v4.8h-0.6v-4.8h-1.8v-0.5h4.1V277.4z"/>
				<path class="st0" d="M592.6,282.2v-5.3h0.6v5.3H592.6z"/>
				<path class="st0" d="M599.8,276.9l0.6,5.3h-0.5l-0.4-3.8l-1.8,3.8h-0.3l-1.7-3.8l-0.4,3.8h-0.5l0.6-5.3h0.3l2,4.4l2-4.4H599.8z"
					/>
				<path class="st0" d="M603.8,276.9h0.3l2.4,5.2l0,0h-0.6l-0.5-1.2h-2.9l-0.6,1.2h-0.6l0,0L603.8,276.9z M603.9,277.8l-1.2,2.6
					h2.4L603.9,277.8z"/>
			</g>
		</g>
	</g>
</g>
<g>
	<circle class="st0" cx="87" cy="66.6" r="59.9"/>
	<circle class="st1" cx="87" cy="66.6" r="44.8"/>
	<circle class="st0" cx="351.3" cy="66.6" r="46.8"/>
	<circle class="st0" cx="615.6" cy="66.6" r="46.8"/>
	<circle class="st0" cx="880" cy="66.6" r="46.8"/>
	<rect x="139.7" y="62.4" class="st0" width="731.7" height="8.4"/>
	<g>
		<path class="st0" d="M94.8,88.5H83.9V53.7l-10.7,3.1v-8.3l20.6-7.1h1V88.5z"/>
	</g>
	<g>
		<path class="st1" d="M361.2,80.4h-18.7v-1.9l10.2-11.6c1.7-2,2.9-3.6,3.5-4.8c0.7-1.3,1-2.5,1-3.7c0-1.9-0.6-3.4-1.7-4.5
			c-1.1-1.1-2.6-1.6-4.6-1.6c-2,0-3.6,0.6-4.9,1.9c-1.2,1.3-1.9,3-1.9,5h-2.4c0-1.7,0.4-3.2,1.1-4.6c0.8-1.4,1.8-2.5,3.2-3.2
			c1.4-0.8,3-1.2,4.8-1.2c2.7,0,4.9,0.7,6.4,2.2c1.5,1.4,2.3,3.4,2.3,5.9c0,1.4-0.4,2.9-1.3,4.6c-0.9,1.7-2.4,3.7-4.6,6.2l-8.3,9.4
			h15.7V80.4z"/>
	</g>
	<g>
		<g>
			<path class="st1" d="M612.3,64.2h2.5c1.4,0,2.6-0.2,3.7-0.7s1.9-1.2,2.4-2c0.6-0.9,0.8-1.9,0.8-3c0-1.9-0.5-3.4-1.6-4.5
				c-1.1-1.1-2.6-1.6-4.7-1.6c-1.9,0-3.5,0.6-4.7,1.7c-1.2,1.1-1.8,2.6-1.8,4.5h-2.5c0-1.5,0.4-3,1.2-4.2c0.8-1.3,1.9-2.3,3.2-3
				c1.4-0.7,2.9-1,4.6-1c2.7,0,4.8,0.7,6.4,2.2c1.6,1.5,2.3,3.5,2.3,6.1c0,1.4-0.5,2.8-1.4,4s-2.2,2.1-3.7,2.7
				c1.9,0.5,3.3,1.4,4.2,2.7c1,1.3,1.4,2.8,1.4,4.5c0,2.6-0.8,4.6-2.5,6.2c-1.7,1.6-3.9,2.3-6.7,2.3c-1.8,0-3.4-0.4-4.9-1.1
				c-1.5-0.7-2.6-1.7-3.4-3c-0.8-1.3-1.2-2.8-1.2-4.5h2.5c0,1.9,0.7,3.4,2,4.6c1.3,1.2,3,1.8,5.1,1.8c2.1,0,3.8-0.5,4.9-1.6
				s1.8-2.7,1.8-4.7c0-2-0.6-3.5-1.9-4.6s-3.2-1.6-5.6-1.6h-2.5V64.2z"/>
		</g>
	</g>
	<g>
		<g>
			<path class="st1" d="M886.2,70.8h4.7v2.1h-4.7v7.5h-2.5v-7.5h-14v-1.4l13.8-20.9h2.7V70.8z M872.7,70.8h11v-17l-1.1,1.9
				L872.7,70.8z"/>
		</g>
	</g>
</g>
</svg>
