<?xml version="1.0" encoding="utf-8"?>
<!-- Generator: Adobe Illustrator 26.0.3, SVG Export Plug-In . SVG Version: 6.00 Build 0)  -->
<svg version="1.1" id="Capa_1" xmlns="http://www.w3.org/2000/svg" xmlns:xlink="http://www.w3.org/1999/xlink" x="0px" y="0px"
	 viewBox="0 0 838.9 939" style="enable-background:new 0 0 838.9 939;" xml:space="preserve">
<style type="text/css">
	.st0{fill:#FFFFFF;}
	.st1{opacity:0.5;clip-path:url(#SVGID_00000084498915764688455200000017908836623709039529_);fill:#0B75A4;}
	.st2{clip-path:url(#SVGID_00000084498915764688455200000017908836623709039529_);}
	.st3{opacity:0.5;clip-path:url(#SVGID_00000084498915764688455200000017908836623709039529_);}
</style>
<g>
	<path class="st0" d="M415.4,865.2v36.9h-21.6V797.4h40.9c7.9,0,14.8,1.4,20.8,4.3s10.6,7,13.8,12.3c3.2,5.3,4.8,11.3,4.8,18.1
		c0,10.3-3.5,18.4-10.5,24.3c-7,5.9-16.8,8.9-29.2,8.9H415.4z M415.4,847.7h19.3c5.7,0,10.1-1.3,13.1-4c3-2.7,4.5-6.5,4.5-11.5
		c0-5.1-1.5-9.3-4.5-12.5s-7.2-4.8-12.5-4.9h-19.8V847.7z"/>
	<path class="st0" d="M535.3,880.6h-37.9l-7.2,21.6h-23l39-104.8h20l39.2,104.8h-23L535.3,880.6z M503.2,863.1h26.2l-13.2-39.2
		L503.2,863.1z"/>
	<path class="st0" d="M629.6,874.7c0-4.1-1.4-7.2-4.3-9.4c-2.9-2.2-8.1-4.5-15.5-6.9c-7.5-2.4-13.4-4.8-17.8-7.2
		c-11.9-6.4-17.8-15.1-17.8-26c0-5.7,1.6-10.7,4.8-15.1c3.2-4.4,7.8-7.9,13.7-10.4c6-2.5,12.7-3.7,20.1-3.7c7.5,0,14.2,1.4,20,4.1
		c5.9,2.7,10.4,6.5,13.6,11.5c3.2,4.9,4.9,10.6,4.9,16.8h-21.6c0-4.8-1.5-8.5-4.5-11.2s-7.3-4-12.7-4c-5.3,0-9.4,1.1-12.3,3.3
		c-2.9,2.2-4.4,5.2-4.4,8.8c0,3.4,1.7,6.3,5.1,8.6c3.4,2.3,8.5,4.5,15.1,6.5c12.3,3.7,21.2,8.3,26.8,13.7s8.4,12.3,8.4,20.4
		c0,9.1-3.4,16.2-10.3,21.3c-6.9,5.2-16.1,7.7-27.7,7.7c-8.1,0-15.4-1.5-22-4.4c-6.6-3-11.7-7-15.1-12.1c-3.5-5.1-5.2-11.1-5.2-17.8
		h21.7c0,11.6,6.9,17.3,20.7,17.3c5.1,0,9.1-1,12-3.1S629.6,878.4,629.6,874.7z"/>
	<path class="st0" d="M752,852.1c0,10.3-1.8,19.4-5.5,27.1c-3.6,7.8-8.9,13.8-15.7,18c-6.8,4.2-14.6,6.3-23.4,6.3
		c-8.7,0-16.4-2.1-23.2-6.3c-6.8-4.2-12.1-10.1-15.8-17.9c-3.7-7.7-5.6-16.7-5.7-26.7v-5.2c0-10.3,1.9-19.4,5.6-27.2
		c3.7-7.8,9-13.9,15.8-18.1c6.8-4.2,14.5-6.3,23.3-6.3s16.5,2.1,23.3,6.3c6.8,4.2,12,10.2,15.8,18.1c3.7,7.8,5.6,16.9,5.6,27.2
		V852.1z M730.1,847.4c0-11-2-19.3-5.9-25c-3.9-5.7-9.5-8.6-16.8-8.6c-7.2,0-12.8,2.8-16.8,8.5c-3.9,5.6-5.9,13.9-6,24.8v5.1
		c0,10.7,2,19,5.9,24.9c3.9,5.9,9.6,8.9,17,8.9c7.2,0,12.8-2.8,16.7-8.5c3.9-5.7,5.9-14,5.9-24.9V847.4z"/>
</g>
<g>
	<defs>
		<rect id="SVGID_1_" y="-31.1" width="838.9" height="970.1"/>
	</defs>
	<clipPath id="SVGID_00000165214057679734035040000001544012769909975742_">
		<use xlink:href="#SVGID_1_"  style="overflow:visible;"/>
	</clipPath>
	
		<circle style="opacity:0.5;clip-path:url(#SVGID_00000165214057679734035040000001544012769909975742_);fill:#0B75A4;" cx="656.8" cy="650.4" r="492"/>
	
		<circle style="opacity:0.5;clip-path:url(#SVGID_00000165214057679734035040000001544012769909975742_);fill:#0B75A4;" cx="656.8" cy="650.4" r="558.3"/>
	
		<circle style="opacity:0.5;clip-path:url(#SVGID_00000165214057679734035040000001544012769909975742_);fill:#0B75A4;" cx="651.3" cy="641.4" r="631"/>
	<g style="clip-path:url(#SVGID_00000165214057679734035040000001544012769909975742_);">
		<path class="st0" d="M610.5,557.4h67.9c34.3-0.3,61.4-9.2,81.5-26.6c20-17.4,30.1-42.7,30.1-75.7c0-31.8-8.3-56.5-25-74.1
			c-16.7-17.6-42.2-26.4-76.4-26.4c-30,0-54.6,8.6-73.9,25.9c-19.3,17.3-28.9,39.9-28.9,67.7H474.2c0-34.3,9.1-65.5,27.3-93.6
			c18.2-28.1,43.6-50.1,76.2-65.9c32.6-15.8,69.1-23.6,109.5-23.6c66.7,0,119.1,16.8,157.2,50.3c38.1,33.5,57.1,80.1,57.1,139.8
			c0,30-9.6,58.2-28.7,84.7c-19.1,26.5-43.8,46.4-74.1,59.9c36.7,12.6,64.6,32.3,83.8,59.2c19.1,26.9,28.7,59.1,28.7,96.4
			c0,60-20.6,107.7-61.7,143.2c-41.2,35.5-95.2,53.2-162.3,53.2c-64.3,0-116.9-17.1-157.9-51.4c-41-34.3-61.5-79.9-61.5-136.8h111.5
			c0,29.4,9.9,53.2,29.6,71.6s46.3,27.5,79.6,27.5c34.6,0,61.8-9.2,81.7-27.5c19.9-18.4,29.8-45,29.8-79.9
			c0-35.2-10.4-62.3-31.2-81.2c-20.8-19-51.7-28.5-92.7-28.5h-65.6V557.4z"/>
	</g>
	<g style="opacity:0.5;clip-path:url(#SVGID_00000165214057679734035040000001544012769909975742_);">
		<path class="st0" d="M600.3,547.2h67.9c34.3-0.3,61.4-9.2,81.5-26.6c20-17.4,30.1-42.7,30.1-75.7c0-31.8-8.3-56.5-25-74.1
			c-16.7-17.6-42.2-26.4-76.4-26.4c-30,0-54.6,8.6-73.9,25.9c-19.3,17.3-28.9,39.9-28.9,67.7H464c0-34.3,9.1-65.5,27.3-93.6
			c18.2-28.1,43.6-50.1,76.2-65.9c32.6-15.8,69.1-23.6,109.5-23.6c66.7,0,119.1,16.8,157.2,50.3c38.1,33.5,57.1,80.1,57.1,139.8
			c0,30-9.6,58.2-28.7,84.7c-19.1,26.5-43.8,46.4-74.1,59.9c36.7,12.6,64.6,32.3,83.8,59.2c19.1,26.9,28.7,59.1,28.7,96.4
			c0,60-20.6,107.7-61.7,143.2c-41.2,35.5-95.2,53.2-162.3,53.2c-64.3,0-116.9-17.1-157.9-51.4c-41-34.3-61.5-79.9-61.5-136.8h111.5
			c0,29.4,9.9,53.2,29.6,71.6s46.3,27.5,79.6,27.5c34.6,0,61.8-9.2,81.7-27.5c19.9-18.4,29.8-45,29.8-79.9
			c0-35.2-10.4-62.3-31.2-81.2c-20.8-19-51.7-28.5-92.7-28.5h-65.6V547.2z"/>
	</g>
	<g style="opacity:0.5;clip-path:url(#SVGID_00000165214057679734035040000001544012769909975742_);">
		<path class="st0" d="M589.8,536.7h67.9c34.3-0.3,61.4-9.2,81.5-26.6c20-17.4,30.1-42.7,30.1-75.7c0-31.8-8.3-56.5-25-74.1
			c-16.7-17.6-42.2-26.4-76.4-26.4c-30,0-54.6,8.6-73.9,25.9c-19.3,17.3-28.9,39.9-28.9,67.7H453.5c0-34.3,9.1-65.5,27.3-93.6
			c18.2-28.1,43.6-50.1,76.2-65.9c32.6-15.8,69.1-23.6,109.5-23.6c66.7,0,119.1,16.8,157.2,50.3c38.1,33.5,57.1,80.1,57.1,139.8
			c0,30-9.6,58.2-28.7,84.7C833,545.5,808.3,565.5,778,579c36.7,12.6,64.6,32.3,83.8,59.2c19.1,26.9,28.7,59.1,28.7,96.4
			c0,60-20.6,107.7-61.7,143.2c-41.2,35.5-95.2,53.2-162.3,53.2c-64.3,0-116.9-17.1-157.9-51.4c-41-34.3-61.5-79.9-61.5-136.8h111.5
			c0,29.4,9.9,53.2,29.6,71.6s46.3,27.5,79.6,27.5c34.6,0,61.8-9.2,81.7-27.5c19.9-18.4,29.8-45,29.8-79.9
			c0-35.2-10.4-62.3-31.2-81.2c-20.8-19-51.7-28.5-92.7-28.5h-65.6V536.7z"/>
	</g>
	<g style="clip-path:url(#SVGID_00000165214057679734035040000001544012769909975742_);">
		<path class="st0" d="M207.6,918.4v26.1h-15.3v-74.1h28.9c5.6,0,10.5,1,14.7,3.1c4.2,2,7.5,4.9,9.7,8.7c2.3,3.7,3.4,8,3.4,12.8
			c0,7.3-2.5,13-7.5,17.2c-5,4.2-11.8,6.3-20.6,6.3H207.6z M207.6,906.1h13.6c4,0,7.1-0.9,9.2-2.8c2.1-1.9,3.2-4.6,3.2-8.1
			c0-3.6-1.1-6.6-3.2-8.8c-2.1-2.2-5.1-3.4-8.9-3.5h-14V906.1z"/>
		<path class="st0" d="M292.3,929.3h-26.8l-5.1,15.3h-16.2l27.6-74.1h14.1l27.7,74.1h-16.2L292.3,929.3z M269.6,916.9h18.5
			l-9.3-27.7L269.6,916.9z"/>
		<path class="st0" d="M359,925.1c0-2.9-1-5.1-3.1-6.6c-2-1.5-5.7-3.2-11-4.9c-5.3-1.7-9.5-3.4-12.6-5.1
			c-8.4-4.5-12.6-10.7-12.6-18.4c0-4,1.1-7.6,3.4-10.7c2.3-3.1,5.5-5.6,9.7-7.4c4.2-1.8,9-2.6,14.2-2.6c5.3,0,10,1,14.1,2.9
			s7.4,4.6,9.6,8.1s3.4,7.5,3.4,11.9H359c0-3.4-1.1-6-3.2-7.9c-2.1-1.9-5.1-2.8-9-2.8c-3.7,0-6.6,0.8-8.7,2.4
			c-2.1,1.6-3.1,3.7-3.1,6.2c0,2.4,1.2,4.4,3.6,6.1s6,3.2,10.7,4.6c8.7,2.6,15,5.9,19,9.7c4,3.9,6,8.7,6,14.4
			c0,6.4-2.4,11.4-7.3,15.1c-4.9,3.6-11.4,5.5-19.6,5.5c-5.7,0-10.9-1-15.6-3.1c-4.7-2.1-8.2-4.9-10.7-8.6
			c-2.5-3.6-3.7-7.8-3.7-12.6h15.3c0,8.2,4.9,12.3,14.7,12.3c3.6,0,6.5-0.7,8.5-2.2C358,929.8,359,927.7,359,925.1z"/>
		<path class="st0" d="M445.5,909.2c0,7.3-1.3,13.7-3.9,19.2c-2.6,5.5-6.3,9.7-11.1,12.7c-4.8,3-10.3,4.5-16.5,4.5
			c-6.1,0-11.6-1.5-16.4-4.4c-4.8-3-8.5-7.2-11.2-12.6c-2.6-5.5-4-11.8-4-18.9v-3.7c0-7.3,1.3-13.7,3.9-19.3
			c2.6-5.5,6.3-9.8,11.1-12.8c4.8-3,10.3-4.5,16.5-4.5c6.2,0,11.7,1.5,16.5,4.5c4.8,3,8.5,7.2,11.1,12.8c2.6,5.5,3.9,11.9,3.9,19.2
			V909.2z M430,905.8c0-7.8-1.4-13.7-4.2-17.7s-6.7-6.1-11.9-6.1c-5.1,0-9.1,2-11.9,6c-2.8,4-4.2,9.8-4.2,17.5v3.6
			c0,7.6,1.4,13.4,4.2,17.6c2.8,4.2,6.8,6.3,12,6.3c5.1,0,9.1-2,11.8-6c2.7-4,4.1-9.9,4.2-17.6V905.8z"/>
	</g>
</g>
</svg>
