<?xml version="1.0" encoding="utf-8"?>
<!-- Generator: Adobe Illustrator 26.0.3, SVG Export Plug-In . SVG Version: 6.00 Build 0)  -->
<svg version="1.1" id="Capa_1" xmlns="http://www.w3.org/2000/svg" xmlns:xlink="http://www.w3.org/1999/xlink" x="0px" y="0px"
	 viewBox="0 0 838.9 939" style="enable-background:new 0 0 838.9 939;" xml:space="preserve">
<style type="text/css">
	.st0{fill:#FFFFFF;}
	.st1{opacity:0.5;clip-path:url(#SVGID_00000096019487075684852170000000299116701388032959_);fill:#0B75A4;}
	.st2{clip-path:url(#SVGID_00000096019487075684852170000000299116701388032959_);}
	.st3{opacity:0.5;clip-path:url(#SVGID_00000096019487075684852170000000299116701388032959_);}
</style>
<g>
	<path class="st0" d="M415.4,865.2v36.9h-21.6V797.4h40.9c7.9,0,14.8,1.4,20.8,4.3s10.6,7,13.8,12.3c3.2,5.3,4.8,11.3,4.8,18.1
		c0,10.3-3.5,18.4-10.5,24.3c-7,5.9-16.8,8.9-29.2,8.9H415.4z M415.4,847.7h19.3c5.7,0,10.1-1.3,13.1-4c3-2.7,4.5-6.5,4.5-11.5
		c0-5.1-1.5-9.3-4.5-12.5s-7.2-4.8-12.5-4.9h-19.8V847.7z"/>
	<path class="st0" d="M535.3,880.6h-37.9l-7.2,21.6h-23l39-104.8h20l39.2,104.8h-23L535.3,880.6z M503.2,863.1h26.2l-13.2-39.2
		L503.2,863.1z"/>
	<path class="st0" d="M629.6,874.7c0-4.1-1.4-7.2-4.3-9.4c-2.9-2.2-8.1-4.5-15.5-6.9c-7.5-2.4-13.4-4.8-17.8-7.2
		c-11.9-6.4-17.8-15.1-17.8-26c0-5.7,1.6-10.7,4.8-15.1c3.2-4.4,7.8-7.9,13.7-10.4c6-2.5,12.7-3.7,20.1-3.7c7.5,0,14.2,1.4,20,4.1
		c5.9,2.7,10.4,6.5,13.6,11.5c3.2,4.9,4.9,10.6,4.9,16.8h-21.6c0-4.8-1.5-8.5-4.5-11.2s-7.3-4-12.7-4c-5.3,0-9.4,1.1-12.3,3.3
		c-2.9,2.2-4.4,5.2-4.4,8.8c0,3.4,1.7,6.3,5.1,8.6c3.4,2.3,8.5,4.5,15.1,6.5c12.3,3.7,21.2,8.3,26.8,13.7s8.4,12.3,8.4,20.4
		c0,9.1-3.4,16.2-10.3,21.3c-6.9,5.2-16.1,7.7-27.7,7.7c-8.1,0-15.4-1.5-22-4.4c-6.6-3-11.7-7-15.1-12.1c-3.5-5.1-5.2-11.1-5.2-17.8
		h21.7c0,11.6,6.9,17.3,20.7,17.3c5.1,0,9.1-1,12-3.1S629.6,878.4,629.6,874.7z"/>
	<path class="st0" d="M752,852.1c0,10.3-1.8,19.4-5.5,27.1c-3.6,7.8-8.9,13.8-15.7,18c-6.8,4.2-14.6,6.3-23.4,6.3
		c-8.7,0-16.4-2.1-23.2-6.3c-6.8-4.2-12.1-10.1-15.8-17.9c-3.7-7.7-5.6-16.7-5.7-26.7v-5.2c0-10.3,1.9-19.4,5.6-27.2
		c3.7-7.8,9-13.9,15.8-18.1c6.8-4.2,14.5-6.3,23.3-6.3s16.5,2.1,23.3,6.3c6.8,4.2,12,10.2,15.8,18.1c3.7,7.8,5.6,16.9,5.6,27.2
		V852.1z M730.1,847.4c0-11-2-19.3-5.9-25c-3.9-5.7-9.5-8.6-16.8-8.6c-7.2,0-12.8,2.8-16.8,8.5c-3.9,5.6-5.9,13.9-6,24.8v5.1
		c0,10.7,2,19,5.9,24.9c3.9,5.9,9.6,8.9,17,8.9c7.2,0,12.8-2.8,16.7-8.5c3.9-5.7,5.9-14,5.9-24.9V847.4z"/>
</g>
<g>
	<defs>
		<rect id="SVGID_1_" y="-31.1" width="838.9" height="970.1"/>
	</defs>
	<clipPath id="SVGID_00000060014309006891481730000005097831761324439190_">
		<use xlink:href="#SVGID_1_"  style="overflow:visible;"/>
	</clipPath>
	
		<circle style="opacity:0.5;clip-path:url(#SVGID_00000060014309006891481730000005097831761324439190_);fill:#0B75A4;" cx="656.8" cy="650" r="492"/>
	
		<circle style="opacity:0.5;clip-path:url(#SVGID_00000060014309006891481730000005097831761324439190_);fill:#0B75A4;" cx="656.8" cy="650" r="558.3"/>
	
		<circle style="opacity:0.5;clip-path:url(#SVGID_00000060014309006891481730000005097831761324439190_);fill:#0B75A4;" cx="651.3" cy="641" r="631"/>
	<g style="clip-path:url(#SVGID_00000060014309006891481730000005097831761324439190_);">
		<path class="st0" d="M930.9,942.2H481.5v-76.7l222.6-242.8c32.1-35.8,55-65.7,68.6-89.7c13.6-24,20.4-48.1,20.4-72.3
			c0-31.8-9-57.5-26.9-77.1c-17.9-19.6-42-29.4-72.3-29.4c-36.1,0-64.1,11-84,33c-19.9,22-29.8,52.2-29.8,90.4H468.7
			c0-40.7,9.3-77.3,27.8-109.9c18.5-32.6,45-57.9,79.4-76c34.4-18.1,74.1-27.1,119.1-27.1c64.9,0,116,16.3,153.5,48.9
			c37.5,32.6,56.2,77.7,56.2,135.2c0,33.4-9.4,68.3-28.2,104.9c-18.8,36.6-49.7,78.1-92.5,124.6L620.6,853.1h310.3V942.2z"/>
	</g>
	<g style="opacity:0.5;clip-path:url(#SVGID_00000060014309006891481730000005097831761324439190_);">
		<path class="st0" d="M920.7,932H471.3v-76.7L694,612.5c32.1-35.8,55-65.7,68.6-89.7c13.6-24,20.4-48.1,20.4-72.3
			c0-31.8-9-57.5-26.9-77.1c-17.9-19.6-42-29.4-72.3-29.4c-36.1,0-64.1,11-84,33c-19.9,22-29.8,52.2-29.8,90.4H458.5
			c0-40.7,9.3-77.3,27.8-109.9c18.5-32.6,45-57.9,79.4-76c34.4-18.1,74.1-27.1,119.1-27.1c64.9,0,116,16.3,153.5,48.9
			c37.5,32.6,56.2,77.7,56.2,135.2c0,33.4-9.4,68.3-28.2,104.9c-18.8,36.6-49.7,78.1-92.5,124.6L610.4,843h310.3V932z"/>
	</g>
	<g style="opacity:0.5;clip-path:url(#SVGID_00000060014309006891481730000005097831761324439190_);">
		<path class="st0" d="M910.2,921.5H460.8v-76.7L683.5,602c32.1-35.8,55-65.7,68.6-89.7c13.6-24,20.4-48.1,20.4-72.3
			c0-31.8-9-57.5-26.9-77.1c-17.9-19.6-42-29.4-72.3-29.4c-36.1,0-64.1,11-84,33c-19.9,22-29.8,52.2-29.8,90.4H448
			c0-40.7,9.3-77.3,27.8-109.9c18.5-32.6,45-57.9,79.4-76C589.6,253,629.3,244,674.3,244c64.9,0,116,16.3,153.5,48.9
			c37.5,32.6,56.2,77.7,56.2,135.2c0,33.4-9.4,68.3-28.2,104.9c-18.8,36.6-49.7,78.1-92.5,124.6L599.9,832.5h310.3V921.5z"/>
	</g>
	<g style="clip-path:url(#SVGID_00000060014309006891481730000005097831761324439190_);">
		<path class="st0" d="M207.6,918.1v26.1h-15.3v-74.1h28.9c5.6,0,10.5,1,14.7,3.1c4.2,2,7.5,4.9,9.7,8.7c2.3,3.7,3.4,8,3.4,12.8
			c0,7.3-2.5,13-7.5,17.2c-5,4.2-11.8,6.3-20.6,6.3H207.6z M207.6,905.7h13.6c4,0,7.1-0.9,9.2-2.8c2.1-1.9,3.2-4.6,3.2-8.1
			c0-3.6-1.1-6.6-3.2-8.8c-2.1-2.2-5.1-3.4-8.9-3.5h-14V905.7z"/>
		<path class="st0" d="M292.3,928.9h-26.8l-5.1,15.3h-16.2l27.6-74.1h14.1l27.7,74.1h-16.2L292.3,928.9z M269.6,916.6h18.5
			l-9.3-27.7L269.6,916.6z"/>
		<path class="st0" d="M359,924.7c0-2.9-1-5.1-3.1-6.6c-2-1.5-5.7-3.2-11-4.9c-5.3-1.7-9.5-3.4-12.6-5.1
			c-8.4-4.5-12.6-10.7-12.6-18.4c0-4,1.1-7.6,3.4-10.7c2.3-3.1,5.5-5.6,9.7-7.4c4.2-1.8,9-2.6,14.2-2.6c5.3,0,10,1,14.1,2.9
			s7.4,4.6,9.6,8.1s3.4,7.5,3.4,11.9H359c0-3.4-1.1-6-3.2-7.9c-2.1-1.9-5.1-2.8-9-2.8c-3.7,0-6.6,0.8-8.7,2.4
			c-2.1,1.6-3.1,3.7-3.1,6.2c0,2.4,1.2,4.4,3.6,6.1s6,3.2,10.7,4.6c8.7,2.6,15,5.9,19,9.7c4,3.9,6,8.7,6,14.4
			c0,6.4-2.4,11.4-7.3,15.1c-4.9,3.6-11.4,5.5-19.6,5.5c-5.7,0-10.9-1-15.6-3.1c-4.7-2.1-8.2-4.9-10.7-8.6
			c-2.5-3.6-3.7-7.8-3.7-12.6h15.3c0,8.2,4.9,12.3,14.7,12.3c3.6,0,6.5-0.7,8.5-2.2C358,929.5,359,927.4,359,924.7z"/>
		<path class="st0" d="M445.5,908.8c0,7.3-1.3,13.7-3.9,19.2s-6.3,9.7-11.1,12.7c-4.8,3-10.3,4.5-16.5,4.5c-6.1,0-11.6-1.5-16.4-4.4
			c-4.8-3-8.5-7.2-11.2-12.6c-2.6-5.5-4-11.8-4-18.9v-3.7c0-7.3,1.3-13.7,3.9-19.3c2.6-5.5,6.3-9.8,11.1-12.8
			c4.8-3,10.3-4.5,16.5-4.5c6.2,0,11.7,1.5,16.5,4.5c4.8,3,8.5,7.2,11.1,12.8c2.6,5.5,3.9,11.9,3.9,19.2V908.8z M430,905.5
			c0-7.8-1.4-13.7-4.2-17.7s-6.7-6.1-11.9-6.1c-5.1,0-9.1,2-11.9,6c-2.8,4-4.2,9.8-4.2,17.5v3.6c0,7.6,1.4,13.4,4.2,17.6
			c2.8,4.2,6.8,6.3,12,6.3c5.1,0,9.1-2,11.8-6s4.1-9.9,4.2-17.6V905.5z"/>
	</g>
</g>
</svg>
