<?xml version="1.0" encoding="utf-8"?>
<!-- Generator: Adobe Illustrator 26.0.3, SVG Export Plug-In . SVG Version: 6.00 Build 0)  -->
<svg version="1.1" id="Capa_1" xmlns="http://www.w3.org/2000/svg" xmlns:xlink="http://www.w3.org/1999/xlink" x="0px" y="0px"
	 viewBox="0 0 838.9 939" style="enable-background:new 0 0 838.9 939;" xml:space="preserve">
<style type="text/css">
	.st0{fill:#FFFFFF;}
	.st1{opacity:0.5;clip-path:url(#SVGID_00000047755087706646257920000004717565351628833975_);fill:#0B75A4;}
	.st2{clip-path:url(#SVGID_00000047755087706646257920000004717565351628833975_);}
	.st3{font-family:'Roboto-Medium';}
	.st4{font-size:940.0451px;}
	.st5{opacity:0.5;clip-path:url(#SVGID_00000047755087706646257920000004717565351628833975_);}
	.st6{font-family:'Roboto-Bold';}
	.st7{font-size:104.1861px;}
</style>
<g>
	<path class="st0" d="M415.4,865.2v36.9h-21.6V797.4h40.9c7.9,0,14.8,1.4,20.8,4.3s10.6,7,13.8,12.3c3.2,5.3,4.8,11.3,4.8,18.1
		c0,10.3-3.5,18.4-10.5,24.3c-7,5.9-16.8,8.9-29.2,8.9H415.4z M415.4,847.7h19.3c5.7,0,10.1-1.3,13.1-4c3-2.7,4.5-6.5,4.5-11.5
		c0-5.1-1.5-9.3-4.5-12.5s-7.2-4.8-12.5-4.9h-19.8V847.7z"/>
	<path class="st0" d="M535.3,880.6h-37.9l-7.2,21.6h-23l39-104.8h20l39.2,104.8h-23L535.3,880.6z M503.2,863.1h26.2l-13.2-39.2
		L503.2,863.1z"/>
	<path class="st0" d="M629.6,874.7c0-4.1-1.4-7.2-4.3-9.4c-2.9-2.2-8.1-4.5-15.5-6.9c-7.5-2.4-13.4-4.8-17.8-7.2
		c-11.9-6.4-17.8-15.1-17.8-26c0-5.7,1.6-10.7,4.8-15.1c3.2-4.4,7.8-7.9,13.7-10.4c6-2.5,12.7-3.7,20.1-3.7c7.5,0,14.2,1.4,20,4.1
		c5.9,2.7,10.4,6.5,13.6,11.5c3.2,4.9,4.9,10.6,4.9,16.8h-21.6c0-4.8-1.5-8.5-4.5-11.2s-7.3-4-12.7-4c-5.3,0-9.4,1.1-12.3,3.3
		c-2.9,2.2-4.4,5.2-4.4,8.8c0,3.4,1.7,6.3,5.1,8.6c3.4,2.3,8.5,4.5,15.1,6.5c12.3,3.7,21.2,8.3,26.8,13.7s8.4,12.3,8.4,20.4
		c0,9.1-3.4,16.2-10.3,21.3c-6.9,5.2-16.1,7.7-27.7,7.7c-8.1,0-15.4-1.5-22-4.4c-6.6-3-11.7-7-15.1-12.1c-3.5-5.1-5.2-11.1-5.2-17.8
		h21.7c0,11.6,6.9,17.3,20.7,17.3c5.1,0,9.1-1,12-3.1S629.6,878.4,629.6,874.7z"/>
	<path class="st0" d="M752,852.1c0,10.3-1.8,19.4-5.5,27.1c-3.6,7.8-8.9,13.8-15.7,18c-6.8,4.2-14.6,6.3-23.4,6.3
		c-8.7,0-16.4-2.1-23.2-6.3c-6.8-4.2-12.1-10.1-15.8-17.9c-3.7-7.7-5.6-16.7-5.7-26.7v-5.2c0-10.3,1.9-19.4,5.6-27.2
		c3.7-7.8,9-13.9,15.8-18.1c6.8-4.2,14.5-6.3,23.3-6.3s16.5,2.1,23.3,6.3c6.8,4.2,12,10.2,15.8,18.1c3.7,7.8,5.6,16.9,5.6,27.2
		V852.1z M730.1,847.4c0-11-2-19.3-5.9-25c-3.9-5.7-9.5-8.6-16.8-8.6c-7.2,0-12.8,2.8-16.8,8.5c-3.9,5.6-5.9,13.9-6,24.8v5.1
		c0,10.7,2,19,5.9,24.9c3.9,5.9,9.6,8.9,17,8.9c7.2,0,12.8-2.8,16.7-8.5c3.9-5.7,5.9-14,5.9-24.9V847.4z"/>
</g>
<g>
	<defs>
		<rect id="SVGID_1_" y="-31.1" width="838.9" height="970.1"/>
	</defs>
	<clipPath id="SVGID_00000050634762212336985720000007654902639552480701_">
		<use xlink:href="#SVGID_1_"  style="overflow:visible;"/>
	</clipPath>
	
		<circle style="opacity:0.5;clip-path:url(#SVGID_00000050634762212336985720000007654902639552480701_);fill:#0B75A4;" cx="656.8" cy="662.1" r="492"/>
	
		<circle style="opacity:0.5;clip-path:url(#SVGID_00000050634762212336985720000007654902639552480701_);fill:#0B75A4;" cx="656.8" cy="662.1" r="558.3"/>
	
		<circle style="opacity:0.5;clip-path:url(#SVGID_00000050634762212336985720000007654902639552480701_);fill:#0B75A4;" cx="651.3" cy="653.1" r="631"/>
	<g style="clip-path:url(#SVGID_00000050634762212336985720000007654902639552480701_);">
		<text transform="matrix(1 0 0 1 351.4769 941.2359)" class="st0 st3 st4">4</text>
	</g>
	<g style="opacity:0.5;clip-path:url(#SVGID_00000050634762212336985720000007654902639552480701_);">
		<text transform="matrix(1 0 0 1 341.3185 931.0775)" class="st0 st3 st4">4</text>
	</g>
	<g style="opacity:0.5;clip-path:url(#SVGID_00000050634762212336985720000007654902639552480701_);">
		<text transform="matrix(1 0 0 1 330.8136 920.5726)" class="st0 st3 st4">4</text>
	</g>
	<g style="opacity:0.5;clip-path:url(#SVGID_00000050634762212336985720000007654902639552480701_);">
		<g>
		</g>
	</g>
	<g style="clip-path:url(#SVGID_00000050634762212336985720000007654902639552480701_);">
		<text transform="matrix(1 0 0 1 359.9497 943.25)" class="st0 st6 st7">PASO</text>
	</g>
</g>
</svg>
