<?xml version="1.0" encoding="utf-8"?>
<!-- Generator: Adobe Illustrator 26.0.3, SVG Export Plug-In . SVG Version: 6.00 Build 0)  -->
<svg version="1.1" id="Capa_1" xmlns="http://www.w3.org/2000/svg" xmlns:xlink="http://www.w3.org/1999/xlink" x="0px" y="0px"
	 viewBox="0 0 133.3 133.3" style="enable-background:new 0 0 133.3 133.3;" xml:space="preserve">
<style type="text/css">
	.st0{fill:#0B75A4;}
</style>
<g>
	<path class="st0" d="M83.7,36.1c2.4,0,4.3,1.9,4.3,4.3v46.7c0,0-4.3-7.6-21.7-7.6s-21.7,7.6-21.7,7.6V40.4c0-2.4,1.9-4.3,4.3-4.3
		H83.7z M48.9,31.7c-4.8,0-8.7,3.9-8.7,8.7v52.1c0,4.8,3.9,8.7,8.7,8.7h34.7c4.8,0,8.7-3.9,8.7-8.7V40.4c0-4.8-3.9-8.7-8.7-8.7H48.9
		z"/>
	<path class="st0" d="M66.3,75.2c7.2,0,13-5.8,13-13c0-7.2-5.8-13-13-13s-13,5.8-13,13C53.3,69.3,59.1,75.2,66.3,75.2z"/>
</g>
</svg>
