<?xml version="1.0" encoding="utf-8"?>
<!-- Generator: Adobe Illustrator 26.0.3, SVG Export Plug-In . SVG Version: 6.00 Build 0)  -->
<svg version="1.1" id="Capa_1" xmlns="http://www.w3.org/2000/svg" xmlns:xlink="http://www.w3.org/1999/xlink" x="0px" y="0px"
	 viewBox="0 0 346.6 133.3" style="enable-background:new 0 0 346.6 133.3;" xml:space="preserve">
<style type="text/css">
	.st0{fill:#0B75A4;}
</style>
<g>
	<g>
		<g id="XMLID_1_">
			<g id="XMLID_6_">
				<path id="XMLID_7_" class="st0" d="M81.6,61.7c-4.7-5.8-4.9-3-4.9-3c0.6,0.6,0.6,3.6,0.6,3.6c-0.4,2.9,1.2,3.6,1.2,3.6
					c0.3,4.9-2.2,6.4-2.9,6.8c-0.7,0.4-1.3-0.2-1.3-0.2L52.9,55.3l0.5-0.5c0.7-0.6,0.8-1.6,0.2-2.2c-0.5-0.6-1.5-0.5-2.2,0.1
					l-0.7,0.7l-2-1.6c0.5-1.5,0.1-3.3-1.2-4.4c-1.7-1.5-4.2-1.4-5.6,0.2c-1.4,1.6-1.1,4.1,0.6,5.5c1.3,1.1,3.1,1.4,4.4,0.7
					c0.5,0.4,1.1,1,1.8,1.6l-0.8,0.8c-0.7,0.6-0.8,1.6-0.2,2.2c0.5,0.6,1.5,0.5,2.2-0.2l0.9-0.9C57.9,64,70.1,75.1,71,76
					c1.4,1.3,0.1,2.4,0.1,2.4c-4,3.6-6.4,2.8-6.4,2.8c-1-1.6-1.1-0.9-1.1-0.9s0.1,0.9-3.9,0.6c-3.4-0.2-2.8,0.3-2.8,0.3
					c2.3,4.5,8.7,4.7,9.5,4.6c0.8-0.1,0.6-0.7,0.6-0.7c0-0.8,0.2-1.3,0.2-1.3c4.4,0,7.3-2.5,7.3-2.5l6-0.2l-0.8-5.6
					c1.8-2.3,1.7-7.8,1.7-7.8s0.1-0.7,0.8-0.5c0.7,0.2,1,0,1,0C83.5,64.5,81.6,61.7,81.6,61.7z M45.5,52.7c-4.6-1.3-1.9-4-1.9-4
					c2.8-1.5,3.7,2.2,3.7,2.2C45.4,50.9,45.5,52.7,45.5,52.7z"/>
			</g>
			<g id="XMLID_2_">
				<path id="XMLID_3_" class="st0" d="M28.1,67.1c0,0,0.2,0.2,1,0c0.7-0.2,0.8,0.5,0.8,0.5s-0.1,5.5,1.7,7.8L30.8,81l6,0.2
					c0,0,2.9,2.6,7.3,2.5c0,0,0.2,0.5,0.2,1.3c0,0-0.1,0.6,0.6,0.7c0.8,0.1,7.2-0.1,9.5-4.6c0,0,0.6-0.6-2.8-0.3
					c-3.9,0.3-3.9-0.6-3.9-0.6s0-0.7-1.1,0.9c0,0-2.5,0.8-6.4-2.8c0,0-1.3-1,0.1-2.4c1-0.9,13.2-12.1,20.3-18.6l0.9,0.9
					c0.7,0.6,1.6,0.7,2.2,0.2c0.5-0.6,0.4-1.5-0.2-2.2l-0.8-0.8c0.7-0.6,1.3-1.2,1.8-1.6c1.4,0.6,3.1,0.4,4.4-0.7
					c1.7-1.5,2-4,0.6-5.5c-1.4-1.6-3.9-1.7-5.6-0.2c-1.3,1.2-1.8,2.9-1.2,4.4l-2.1,1.6L60,52.6c-0.7-0.6-1.6-0.7-2.2-0.2
					C57.3,53,57.4,54,58,54.6l0.5,0.5L37.1,72.3c0,0-0.6,0.6-1.3,0.2c-0.7-0.4-3.2-1.9-2.9-6.8c0,0,1.6-0.8,1.2-3.6
					c0,0,0-2.9,0.6-3.6c0,0-0.2-2.8-4.9,3C29.8,61.4,28,64.3,28.1,67.1z M64.2,50.7c0,0,0.9-3.7,3.7-2.2c0,0,2.7,2.7-1.9,4
					C66,52.5,66,50.6,64.2,50.7z"/>
			</g>
		</g>
		<g>
			<g>
				<path class="st0" d="M32.4,98l0.6,0.4l-1,5.2l-0.1,0l-1-0.7l0.2-0.9l-1.7-1.2l-0.8,0.5l-0.9-0.7l0-0.1L32.4,98z M31.8,99.4
					l-1.5,0.9l1.1,0.8L31.8,99.4z"/>
				<path class="st0" d="M38,104.6l0.1,2.1l-0.1,0.1l-1-0.5l-0.1-2.1l-0.6-0.3l-0.8,1.6l-1-0.5l2.1-4.4l1.9,0.9
					c0.5,0.3,0.9,0.6,1.1,1c0.2,0.4,0.1,0.8-0.1,1.2c-0.1,0.3-0.3,0.5-0.6,0.6C38.6,104.6,38.3,104.6,38,104.6z M38,102.5l-0.8-0.4
					l-0.6,1.1l0.8,0.4c0.2,0.1,0.4,0.1,0.5,0.1c0.2,0,0.3-0.2,0.4-0.3c0.1-0.2,0.1-0.3,0-0.5C38.3,102.7,38.2,102.5,38,102.5z"/>
				<path class="st0" d="M46.2,106.6L46.2,106.6c0.1,0.2,0,0.3,0,0.4c-0.2,0.7-0.6,1.2-1.2,1.5c-0.6,0.3-1.3,0.4-1.9,0.2
					c-0.7-0.2-1.2-0.6-1.5-1.2c-0.3-0.6-0.4-1.2-0.2-1.9c0.2-0.7,0.6-1.2,1.2-1.5c0.6-0.3,1.3-0.4,1.9-0.2c0.4,0.1,0.7,0.3,1,0.6
					c0.3,0.3,0.5,0.6,0.6,0.9l0,0.1l-0.9,0.4l-0.1,0c-0.2-0.5-0.5-0.8-1-0.9c-0.4-0.1-0.7-0.1-1.1,0.1c-0.3,0.2-0.6,0.5-0.7,0.9
					c-0.1,0.4-0.1,0.8,0.1,1.1c0.2,0.3,0.5,0.6,0.9,0.7c0.4,0.1,0.7,0.1,1-0.1c0.2-0.1,0.4-0.3,0.5-0.5l-1.2-0.4l0.2-0.8L46.2,106.6
					z"/>
				<path class="st0" d="M52.6,105.4l-0.1,0.9l-2.4-0.3l-0.1,1l1.8,0.2l-0.1,0.9l-1.8-0.2l-0.1,1l2.4,0.3l-0.1,0.9l-3.5-0.4l0.6-4.8
					L52.6,105.4z"/>
				<path class="st0" d="M58.2,108.3l-0.1-2.9l1.2,0l0.2,4.9l-0.7,0l-2.6-2.8l0.1,2.9l-1.2,0l-0.2-4.8l0.7,0L58.2,108.3z"/>
				<path class="st0" d="M65.7,105.3l-1.5,0.3l0.8,3.8l-1.2,0.2l-0.8-3.8l-1.5,0.3l-0.2-0.9l4.1-0.8L65.7,105.3z"/>
				<path class="st0" d="M69,108.3l-1.5-4.6l1.1-0.4l1.5,4.6L69,108.3z"/>
				<path class="st0" d="M75.1,103.7l-1.3-2.6l1-0.5L77,105l-0.7,0.3l-3.5-1.5l1.3,2.6l-1,0.5l-2.1-4.4l0.6-0.3L75.1,103.7z"/>
				<path class="st0" d="M78.5,98.3l0.6-0.4l4.6,2.6l0,0.1l-1,0.7l-0.8-0.5l-1.7,1.2l0.2,0.9l-0.9,0.7l-0.1,0L78.5,98.3z M79.7,99.3
					l0.4,1.7l1.1-0.8L79.7,99.3z"/>
			</g>
		</g>
		<g>
			<path class="st0" d="M15.8,49.7l0.9-1.9c0.3-0.5,0.6-0.9,1-1.1c0.4-0.2,0.8-0.2,1.3,0c0.5,0.2,0.7,0.5,0.9,0.9
				c0.1,0.4,0.1,0.9-0.2,1.4l-0.4,0.9l1.5,0.7l-0.5,1.1L15.8,49.7z M18.3,49.6l0.4-0.9c0.1-0.2,0.1-0.4,0-0.5
				c-0.1-0.2-0.2-0.3-0.4-0.4c-0.2-0.1-0.4-0.1-0.5,0c-0.2,0.1-0.3,0.2-0.4,0.4L17.1,49L18.3,49.6z"/>
			<path class="st0" d="M22.9,42.7l2.1,0.2l0,0.1l-0.6,1l-2.1-0.2L22,44.3l1.5,1l-0.6,1l-4-2.7l1.2-1.7c0.3-0.5,0.7-0.8,1.1-0.9
				s0.8,0,1.2,0.2c0.3,0.2,0.4,0.4,0.5,0.7C22.9,42.1,23,42.4,22.9,42.7z M20.8,42.4l-0.5,0.8l1.1,0.7l0.5-0.8
				c0.1-0.2,0.2-0.3,0.1-0.5s-0.1-0.3-0.3-0.4c-0.2-0.1-0.3-0.1-0.5-0.1C21,42.1,20.9,42.2,20.8,42.4z"/>
			<path class="st0" d="M25.3,35.4l0.7,0.6l-1.6,1.7l0.7,0.7l1.2-1.4l0.7,0.6l-1.2,1.4l0.8,0.7l1.6-1.8l0.7,0.6l-2.4,2.6L22.9,38
				L25.3,35.4z"/>
			<path class="st0" d="M30.1,31.3l0.6,0.7l-1.7,1.4l0.7,0.8l1.3-1.1l0.6,0.7L30.2,35l1.2,1.5l-0.9,0.7l-3.1-3.8L30.1,31.3z"/>
			<path class="st0" d="M35.4,28l0.5,0.8l-2,1.2l0.5,0.9l1.6-0.9l0.5,0.8l-1.6,0.9l0.5,0.9l2.1-1.2l0.5,0.8l-3.1,1.8l-2.5-4.2
				L35.4,28z"/>
			<path class="st0" d="M41.9,30.4c-0.7,0.3-1.3,0.3-2,0c-0.6-0.3-1.1-0.7-1.4-1.4c-0.3-0.7-0.3-1.3,0-1.9c0.3-0.6,0.8-1.1,1.5-1.4
				c0.4-0.2,0.8-0.2,1.2-0.2c0.4,0,0.8,0.1,1.1,0.3l0,0.1l-0.4,0.8l-0.1,0c-0.4-0.2-0.9-0.3-1.4-0.1c-0.4,0.2-0.6,0.4-0.8,0.8
				c-0.2,0.4-0.2,0.7,0,1.1c0.2,0.4,0.4,0.7,0.8,0.8c0.4,0.2,0.7,0.2,1.1,0c0.5-0.2,0.8-0.5,0.9-1l0.1,0l0.9,0.3l0,0.1
				c-0.1,0.4-0.3,0.7-0.6,1C42.6,30.1,42.3,30.3,41.9,30.4z"/>
			<path class="st0" d="M48.5,24.4L47,24.8l0.9,3.8l-1.1,0.3L45.9,25l-1.5,0.3l-0.2-0.9l4.1-0.9L48.5,24.4z"/>
			<path class="st0" d="M51.1,25.8l-0.2-2.7l1.2-0.1l0.2,2.8c0,0.3,0.1,0.6,0.4,0.8s0.5,0.3,0.8,0.3c0.3,0,0.6-0.1,0.8-0.4
				c0.2-0.2,0.3-0.5,0.3-0.8l-0.2-2.8l1.1-0.1l0.2,2.7c0,0.7-0.1,1.2-0.5,1.7c-0.4,0.4-0.9,0.7-1.6,0.7c-0.7,0-1.2-0.1-1.7-0.5
				C51.4,27,51.1,26.5,51.1,25.8z"/>
			<path class="st0" d="M61.2,26.2l0.8,2L62,28.2l-1.1-0.1l-0.8-1.9l-0.7-0.1l-0.2,1.8L58,27.8l0.5-4.8l2.1,0.2
				c0.6,0.1,1,0.2,1.3,0.6c0.3,0.3,0.4,0.7,0.4,1.2c0,0.3-0.1,0.6-0.3,0.8C61.8,25.9,61.6,26.1,61.2,26.2z M60.5,24.1L59.6,24
				l-0.1,1.3l0.9,0.1c0.2,0,0.4,0,0.5-0.1c0.1-0.1,0.2-0.2,0.2-0.4c0-0.2,0-0.4-0.1-0.5C60.9,24.2,60.7,24.2,60.5,24.1z"/>
			<path class="st0" d="M67.1,24.4l0.7,0.2l0.9,5.2l-0.1,0.1l-1.1-0.3l-0.1-0.9l-2-0.6l-0.6,0.7l-1.1-0.3l0-0.1L67.1,24.4z M67,26
				l-1.1,1.4l1.3,0.4L67,26z"/>
			<path class="st0" d="M76.6,31.6l1.4-2.5l1,0.6l-2.4,4.2L76,33.6l-0.7-3.7l-1.4,2.5l-1-0.6l2.4-4.2l0.6,0.4L76.6,31.6z"/>
			<path class="st0" d="M83,32.6l0.5,0.5l-1.3,5.1l-0.1,0l-0.9-0.8l0.3-0.9l-1.6-1.3l-0.8,0.4L78.2,35l0-0.1L83,32.6z M82.3,34.1
				l-1.6,0.8l1.1,0.9L82.3,34.1z"/>
			<path class="st0" d="M88.9,38.5l0.8,0.9l0,0.1l-5,1.5l-0.5-0.5l2.1-4.8l0.1,0l0.8,0.9l-1.5,3L88.9,38.5z"/>
			<path class="st0" d="M91.9,42.5l0.4,0.6l-2.8,4.5l-0.1,0l-0.6-1l0.5-0.8L88.1,44l-0.9,0.2l-0.6-1l0-0.1L91.9,42.5z M90.8,43.6
				L89,43.9l0.7,1.2L90.8,43.6z"/>
			<path class="st0" d="M91.5,49.9l0.8,1.9l-0.9,0.4l-1.3-2.9l4.4-2l0.5,1.1L91.5,49.9z"/>
		</g>
	</g>
	<g>
		<g>
			<path class="st0" d="M109.7,91.3V33.1h14v58.3H109.7z"/>
			<path class="st0" d="M136.2,65.4V33.1h14v33.1c0,4.1,1.2,7.4,3.6,9.9c2.4,2.5,5.6,3.8,9.5,3.8c3.9,0,7-1.3,9.5-3.8
				c2.4-2.5,3.6-5.8,3.6-9.9V33.1H190v32.3c0,8.1-2.5,14.7-7.4,19.6c-4.9,4.9-11.4,7.4-19.4,7.4c-8.2,0-14.7-2.5-19.7-7.4
				C138.6,80.1,136.2,73.5,136.2,65.4z"/>
			<path class="st0" d="M222.8,92.4c-5.2,0-10-0.9-14.3-2.8c-4.4-1.9-7.9-4.4-10.5-7.7v-1.1l6.9-8h1c1.9,2.2,4.4,4,7.4,5.5
				c3,1.5,5.9,2.2,8.7,2.2c2.9,0,5.1-0.5,6.8-1.6c1.7-1,2.5-2.4,2.5-4.2c0-1.6-0.5-2.8-1.6-3.7c-0.5-0.4-1.2-0.8-2.2-1.2
				c-1.2-0.5-2-0.8-2.5-0.9c-0.2-0.1-0.5-0.1-0.7-0.2c-0.3-0.1-0.7-0.2-1.2-0.4c-0.5-0.1-0.9-0.3-1.3-0.4c-0.6-0.1-1.2-0.3-2-0.5
				c-0.8-0.2-1.2-0.4-1.4-0.4c-4.6-1.4-8.5-3.3-11.8-5.7c-4-2.9-6-7-6-12.1c0-5.1,2-9.3,6.1-12.4c4.1-3.2,9.3-4.8,15.8-4.8
				c4.6,0,8.9,0.8,12.7,2.4c3.8,1.6,6.9,3.7,9.1,6.4v1l-6.9,7.9h-1c-4.1-4.2-8.7-6.3-13.8-6.4c-2.4,0-4.3,0.5-5.7,1.4
				c-1.5,0.9-2.2,2.2-2.2,3.8c0,1.8,1,3.3,2.9,4.3c1.2,0.6,2.1,1.1,2.8,1.4c0.5,0.2,1.6,0.6,3.5,1.3c6.5,2.1,11,3.8,13.4,5.2
				c5.3,3.2,8,7.9,8.1,14.1c0,5.5-2.2,9.8-6.5,13C234.7,90.9,229.3,92.4,222.8,92.4z"/>
			<path class="st0" d="M313.6,33.1l8.1,58.3h-12.9l-3.6-31.5l-13.9,31.5h-7.8l-13.6-31.5l-3.7,31.5h-13.8l8.1-58.3h8.2l18.6,40.1
				l18.2-40.1H313.6z"/>
		</g>
		<g>
			<g>
				<path class="st0" d="M110.4,106.8v-5.3h0.6v5.3H110.4z"/>
				<path class="st0" d="M116.6,105.7v-4.2h0.6v5.4h-0.3l-3.4-4.2v4.1h-0.6v-5.3h0.3L116.6,105.7z"/>
				<path class="st0" d="M120.5,106.9c-0.4,0-0.8-0.1-1.2-0.3c-0.4-0.2-0.7-0.5-0.9-0.8v0l0.4-0.3h0c0.2,0.3,0.5,0.5,0.7,0.7
					c0.3,0.2,0.6,0.2,0.9,0.2c0.4,0,0.7-0.1,0.9-0.3c0.2-0.2,0.3-0.4,0.3-0.7c0-0.2,0-0.3-0.1-0.4c-0.1-0.1-0.1-0.2-0.3-0.3
					c-0.1-0.1-0.3-0.2-0.4-0.2c-0.1,0-0.3-0.1-0.5-0.2c-0.2-0.1-0.4-0.1-0.5-0.2c-0.2-0.1-0.3-0.1-0.4-0.2c-0.1-0.1-0.2-0.1-0.4-0.2
					c-0.3-0.2-0.5-0.5-0.5-1c0-0.4,0.2-0.8,0.5-1c0.3-0.3,0.7-0.4,1.3-0.4c0.7,0,1.3,0.3,1.7,0.8v0l-0.4,0.3h0
					c-0.4-0.4-0.8-0.7-1.3-0.7c-0.3,0-0.6,0.1-0.8,0.2c-0.2,0.2-0.3,0.4-0.3,0.6c0,0.2,0.1,0.4,0.3,0.5c0.2,0.1,0.4,0.3,0.8,0.4
					c0.1,0,0.2,0.1,0.3,0.1c0.2,0.1,0.3,0.1,0.4,0.1c0.1,0,0.2,0.1,0.3,0.1c0.1,0.1,0.2,0.1,0.3,0.2c0.2,0.1,0.4,0.3,0.5,0.5
					c0.1,0.2,0.2,0.4,0.2,0.7c0,0.4-0.2,0.8-0.5,1.1C121.5,106.7,121.1,106.9,120.5,106.9z"/>
				<path class="st0" d="M127.2,102h-1.8v4.8h-0.6V102h-1.8v-0.5h4.1V102z"/>
				<path class="st0" d="M128.4,106.8v-5.3h0.6v5.3H128.4z"/>
				<path class="st0" d="M134.3,102h-1.8v4.8h-0.6V102h-1.8v-0.5h4.1V102z"/>
				<path class="st0" d="M135.4,104.7v-3.2h0.6v3.2c0,0.5,0.1,0.9,0.4,1.2c0.3,0.3,0.7,0.5,1.2,0.5c0.5,0,0.9-0.2,1.2-0.5
					c0.3-0.3,0.4-0.7,0.4-1.2v-3.2h0.6v3.2c0,0.7-0.2,1.2-0.6,1.6c-0.4,0.4-0.9,0.6-1.6,0.6c-0.7,0-1.2-0.2-1.6-0.6
					C135.6,105.9,135.4,105.4,135.4,104.7z"/>
				<path class="st0" d="M145,102h-1.8v4.8h-0.6V102h-1.8v-0.5h4.1V102z"/>
				<path class="st0" d="M150.3,106.1c-0.5,0.5-1.2,0.8-2,0.8c-0.8,0-1.5-0.3-2-0.8c-0.5-0.5-0.8-1.2-0.8-2s0.3-1.4,0.8-2
					c0.5-0.5,1.2-0.8,2-0.8c0.8,0,1.5,0.3,2,0.8c0.5,0.5,0.8,1.2,0.8,2S150.9,105.6,150.3,106.1z M146.8,105.7
					c0.4,0.4,0.9,0.6,1.6,0.6c0.6,0,1.2-0.2,1.6-0.6c0.4-0.4,0.6-0.9,0.6-1.6c0-0.6-0.2-1.2-0.6-1.6c-0.4-0.4-0.9-0.6-1.6-0.6
					c-0.6,0-1.2,0.2-1.6,0.6c-0.4,0.4-0.6,0.9-0.6,1.6C146.1,104.8,146.3,105.3,146.8,105.7z"/>
				<path class="st0" d="M154.9,104.7v-3.2h0.6v3.2c0,0.5,0.1,0.9,0.4,1.2c0.3,0.3,0.7,0.5,1.2,0.5c0.5,0,0.9-0.2,1.2-0.5
					c0.3-0.3,0.4-0.7,0.4-1.2v-3.2h0.6v3.2c0,0.7-0.2,1.2-0.6,1.6c-0.4,0.4-0.9,0.6-1.6,0.6c-0.7,0-1.2-0.2-1.6-0.6
					C155.1,105.9,154.9,105.4,154.9,104.7z"/>
				<path class="st0" d="M164.7,105.7v-4.2h0.6v5.4H165l-3.4-4.2v4.1H161v-5.3h0.3L164.7,105.7z"/>
				<path class="st0" d="M167.2,106.8v-5.3h0.6v5.3H167.2z"/>
				<path class="st0" d="M173.2,101.5h0.6l0,0l-2.3,5.2h-0.3l-2.3-5.2l0,0h0.6l1.8,4.2L173.2,101.5z"/>
				<path class="st0" d="M178.6,101.5v0.5h-2.9v1.8h2.3v0.5h-2.3v1.9h2.9v0.5h-3.5v-5.3H178.6z"/>
				<path class="st0" d="M183.9,103c0,0.4-0.1,0.7-0.3,0.9c-0.2,0.2-0.5,0.4-0.9,0.5l1.2,2.3l0,0h-0.6l-1.2-2.2H182h-1.4v2.2H180
					v-5.3h2c0.6,0,1.1,0.1,1.4,0.4C183.7,102.2,183.9,102.5,183.9,103z M182.2,102h-1.6v2h1.6c0.3,0,0.6-0.1,0.8-0.3
					c0.2-0.2,0.3-0.4,0.3-0.7c0-0.3-0.1-0.5-0.3-0.7C182.8,102.1,182.5,102,182.2,102z"/>
				<path class="st0" d="M186.9,106.9c-0.4,0-0.8-0.1-1.2-0.3c-0.4-0.2-0.7-0.5-0.9-0.8v0l0.4-0.3h0c0.2,0.3,0.5,0.5,0.7,0.7
					c0.3,0.2,0.6,0.2,0.9,0.2c0.4,0,0.7-0.1,0.9-0.3c0.2-0.2,0.3-0.4,0.3-0.7c0-0.2,0-0.3-0.1-0.4c-0.1-0.1-0.1-0.2-0.3-0.3
					c-0.1-0.1-0.3-0.2-0.4-0.2c-0.1,0-0.3-0.1-0.5-0.2c-0.2-0.1-0.4-0.1-0.5-0.2c-0.2-0.1-0.3-0.1-0.4-0.2c-0.1-0.1-0.2-0.1-0.4-0.2
					c-0.3-0.2-0.5-0.5-0.5-1c0-0.4,0.2-0.8,0.5-1c0.3-0.3,0.7-0.4,1.3-0.4c0.7,0,1.3,0.3,1.7,0.8v0l-0.4,0.3h0
					c-0.4-0.4-0.8-0.7-1.3-0.7c-0.3,0-0.6,0.1-0.8,0.2c-0.2,0.2-0.3,0.4-0.3,0.6c0,0.2,0.1,0.4,0.3,0.5c0.2,0.1,0.4,0.3,0.8,0.4
					c0.1,0,0.2,0.1,0.3,0.1c0.2,0.1,0.3,0.1,0.4,0.1c0.1,0,0.2,0.1,0.3,0.1c0.1,0.1,0.2,0.1,0.3,0.2c0.2,0.1,0.4,0.3,0.5,0.5
					c0.1,0.2,0.2,0.4,0.2,0.7c0,0.4-0.2,0.8-0.5,1.1C187.9,106.7,187.5,106.9,186.9,106.9z"/>
				<path class="st0" d="M190.2,106.8v-5.3h0.6v5.3H190.2z"/>
				<path class="st0" d="M196.1,102h-1.8v4.8h-0.6V102H192v-0.5h4.1V102z"/>
				<path class="st0" d="M198.5,101.5h0.3l2.4,5.2l0,0h-0.6l-0.5-1.2h-2.9l-0.6,1.2h-0.6l0,0L198.5,101.5z M198.6,102.5l-1.2,2.6
					h2.4L198.6,102.5z"/>
				<path class="st0" d="M206.3,103c0,0.4-0.1,0.7-0.3,0.9c-0.2,0.2-0.5,0.4-0.9,0.5l1.2,2.3l0,0h-0.6l-1.2-2.2h-0.1H203v2.2h-0.6
					v-5.3h2c0.6,0,1.1,0.1,1.4,0.4C206.1,102.2,206.3,102.5,206.3,103z M204.6,102H203v2h1.6c0.3,0,0.6-0.1,0.8-0.3
					c0.2-0.2,0.3-0.4,0.3-0.7c0-0.3-0.1-0.5-0.3-0.7C205.2,102.1,204.9,102,204.6,102z"/>
				<path class="st0" d="M207.8,106.8v-5.3h0.6v5.3H207.8z"/>
				<path class="st0" d="M214.6,106.1c-0.5,0.5-1.2,0.8-2,0.8c-0.8,0-1.5-0.3-2-0.8c-0.5-0.5-0.8-1.2-0.8-2s0.3-1.4,0.8-2
					c0.5-0.5,1.2-0.8,2-0.8c0.8,0,1.5,0.3,2,0.8c0.5,0.5,0.8,1.2,0.8,2S215.2,105.6,214.6,106.1z M211.1,105.7
					c0.4,0.4,0.9,0.6,1.6,0.6c0.6,0,1.2-0.2,1.6-0.6c0.4-0.4,0.6-0.9,0.6-1.6c0-0.6-0.2-1.2-0.6-1.6c-0.4-0.4-0.9-0.6-1.6-0.6
					c-0.6,0-1.2,0.2-1.6,0.6c-0.4,0.4-0.6,0.9-0.6,1.6C210.4,104.8,210.7,105.3,211.1,105.7z"/>
				<path class="st0" d="M219.2,101.5h2c0.8,0,1.5,0.2,2,0.7c0.5,0.5,0.8,1.1,0.8,1.9c0,0.8-0.3,1.4-0.8,1.9c-0.5,0.5-1.2,0.7-2,0.7
					h-2V101.5z M219.8,106.3h1.4c0.7,0,1.2-0.2,1.6-0.6c0.4-0.4,0.6-0.9,0.6-1.5c0-0.6-0.2-1.2-0.6-1.5c-0.4-0.4-0.9-0.6-1.6-0.6
					h-1.4V106.3z"/>
				<path class="st0" d="M229,101.5v0.5h-2.9v1.8h2.3v0.5h-2.3v1.9h2.9v0.5h-3.5v-5.3H229z"/>
				<path class="st0" d="M234.3,106.9c-0.4,0-0.8-0.1-1.2-0.3c-0.4-0.2-0.7-0.5-0.9-0.8v0l0.4-0.3h0c0.2,0.3,0.5,0.5,0.7,0.7
					c0.3,0.2,0.6,0.2,0.9,0.2c0.4,0,0.7-0.1,0.9-0.3c0.2-0.2,0.3-0.4,0.3-0.7c0-0.2,0-0.3-0.1-0.4c-0.1-0.1-0.1-0.2-0.3-0.3
					c-0.1-0.1-0.3-0.2-0.4-0.2c-0.1,0-0.3-0.1-0.5-0.2c-0.2-0.1-0.4-0.1-0.5-0.2c-0.2-0.1-0.3-0.1-0.4-0.2c-0.1-0.1-0.2-0.1-0.4-0.2
					c-0.3-0.2-0.5-0.5-0.5-1c0-0.4,0.2-0.8,0.5-1c0.3-0.3,0.7-0.4,1.3-0.4c0.7,0,1.3,0.3,1.7,0.8v0l-0.4,0.3h0
					c-0.4-0.4-0.8-0.7-1.3-0.7c-0.3,0-0.6,0.1-0.8,0.2c-0.2,0.2-0.3,0.4-0.3,0.6c0,0.2,0.1,0.4,0.3,0.5c0.2,0.1,0.4,0.3,0.8,0.4
					c0.1,0,0.2,0.1,0.3,0.1c0.2,0.1,0.3,0.1,0.4,0.1c0.1,0,0.2,0.1,0.3,0.1c0.1,0.1,0.2,0.1,0.3,0.2c0.2,0.1,0.4,0.3,0.5,0.5
					c0.1,0.2,0.2,0.4,0.2,0.7c0,0.4-0.2,0.8-0.5,1.1C235.3,106.7,234.9,106.9,234.3,106.9z"/>
				<path class="st0" d="M241.1,101.5v0.5h-2.9v1.8h2.3v0.5h-2.3v1.9h2.9v0.5h-3.5v-5.3H241.1z"/>
				<path class="st0" d="M247.3,103.9L247.3,103.9c0.1,0.1,0.1,0.2,0.1,0.3c0,0.7-0.2,1.4-0.7,1.9c-0.5,0.5-1.2,0.8-1.9,0.8
					c-0.8,0-1.4-0.3-1.9-0.8c-0.5-0.5-0.8-1.2-0.8-2s0.3-1.4,0.8-2c0.5-0.5,1.2-0.8,1.9-0.8c0.4,0,0.8,0.1,1.2,0.3
					c0.4,0.2,0.7,0.4,0.9,0.8v0.1l-0.4,0.3h-0.1c-0.2-0.3-0.4-0.5-0.7-0.6c-0.3-0.2-0.6-0.2-1-0.2c-0.6,0-1.1,0.2-1.5,0.6
					c-0.4,0.4-0.6,0.9-0.6,1.6c0,0.7,0.2,1.2,0.6,1.6c0.4,0.4,0.9,0.6,1.5,0.6c0.6,0,1.1-0.2,1.5-0.6c0.3-0.4,0.5-0.8,0.5-1.3h-2
					v-0.5H247.3z"/>
				<path class="st0" d="M248.6,104.7v-3.2h0.6v3.2c0,0.5,0.1,0.9,0.4,1.2c0.3,0.3,0.7,0.5,1.2,0.5c0.5,0,0.9-0.2,1.2-0.5
					c0.3-0.3,0.4-0.7,0.4-1.2v-3.2h0.6v3.2c0,0.7-0.2,1.2-0.6,1.6c-0.4,0.4-0.9,0.6-1.6,0.6c-0.7,0-1.2-0.2-1.6-0.6
					C248.8,105.9,248.6,105.4,248.6,104.7z"/>
				<path class="st0" d="M258.7,103c0,0.4-0.1,0.7-0.3,0.9c-0.2,0.2-0.5,0.4-0.9,0.5l1.2,2.3l0,0h-0.6l-1.2-2.2h-0.1h-1.4v2.2h-0.6
					v-5.3h2c0.6,0,1.1,0.1,1.4,0.4C258.5,102.2,258.7,102.5,258.7,103z M257,102h-1.6v2h1.6c0.3,0,0.6-0.1,0.8-0.3
					c0.2-0.2,0.3-0.4,0.3-0.7c0-0.3-0.1-0.5-0.3-0.7C257.6,102.1,257.3,102,257,102z"/>
				<path class="st0" d="M260.2,106.8v-5.3h0.6v5.3H260.2z"/>
				<path class="st0" d="M262.6,101.5h2c0.8,0,1.5,0.2,2,0.7c0.5,0.5,0.8,1.1,0.8,1.9c0,0.8-0.3,1.4-0.8,1.9c-0.5,0.5-1.2,0.7-2,0.7
					h-2V101.5z M263.2,106.3h1.4c0.7,0,1.2-0.2,1.6-0.6c0.4-0.4,0.6-0.9,0.6-1.5c0-0.6-0.2-1.2-0.6-1.5c-0.4-0.4-0.9-0.6-1.6-0.6
					h-1.4V106.3z"/>
				<path class="st0" d="M270.5,101.5h0.3l2.4,5.2l0,0h-0.6l-0.5-1.2h-2.9l-0.6,1.2h-0.6l0,0L270.5,101.5z M270.6,102.5l-1.2,2.6
					h2.4L270.6,102.5z"/>
				<path class="st0" d="M274.4,101.5h2c0.8,0,1.5,0.2,2,0.7c0.5,0.5,0.8,1.1,0.8,1.9c0,0.8-0.3,1.4-0.8,1.9c-0.5,0.5-1.2,0.7-2,0.7
					h-2V101.5z M275,106.3h1.4c0.7,0,1.2-0.2,1.6-0.6c0.4-0.4,0.6-0.9,0.6-1.5c0-0.6-0.2-1.2-0.6-1.5c-0.4-0.4-0.9-0.6-1.6-0.6H275
					V106.3z"/>
				<path class="st0" d="M287.8,101.5l0.6,5.3h-0.5l-0.4-3.8l-1.8,3.8h-0.3l-1.7-3.8l-0.4,3.8h-0.5l0.6-5.3h0.3l2,4.4l2-4.4H287.8z"
					/>
				<path class="st0" d="M291.8,101.5h0.3l2.4,5.2l0,0h-0.6l-0.5-1.2h-2.9l-0.6,1.2h-0.6l0,0L291.8,101.5z M291.9,102.5l-1.2,2.6
					h2.4L291.9,102.5z"/>
				<path class="st0" d="M299.6,103c0,0.4-0.1,0.7-0.3,0.9c-0.2,0.2-0.5,0.4-0.9,0.5l1.2,2.3l0,0H299l-1.2-2.2h-0.1h-1.4v2.2h-0.6
					v-5.3h2c0.6,0,1.1,0.1,1.4,0.4C299.4,102.2,299.6,102.5,299.6,103z M297.9,102h-1.6v2h1.6c0.3,0,0.6-0.1,0.8-0.3
					c0.2-0.2,0.3-0.4,0.3-0.7c0-0.3-0.1-0.5-0.3-0.7C298.5,102.1,298.2,102,297.9,102z"/>
				<path class="st0" d="M300.4,100.7l1.5-1h0l0.3,0.4v0l-1.6,0.8h0L300.4,100.7L300.4,100.7z M301.1,106.8v-5.3h0.6v5.3H301.1z"/>
				<path class="st0" d="M307,102h-1.8v4.8h-0.6V102h-1.8v-0.5h4.1V102z"/>
				<path class="st0" d="M308.2,106.8v-5.3h0.6v5.3H308.2z"/>
				<path class="st0" d="M315.4,101.5l0.6,5.3h-0.5L315,103l-1.8,3.8H313l-1.7-3.8l-0.4,3.8h-0.5l0.6-5.3h0.3l2,4.4l2-4.4H315.4z"/>
				<path class="st0" d="M319.4,101.5h0.3l2.4,5.2l0,0h-0.6l-0.5-1.2h-2.9l-0.6,1.2h-0.6l0,0L319.4,101.5z M319.5,102.5l-1.2,2.6
					h2.4L319.5,102.5z"/>
			</g>
		</g>
	</g>
</g>
</svg>
